<?xml version="1.0" standalone="no"?>
<!DOCTYPE svg PUBLIC "-//W3C//DTD SVG 1.1//EN" "http://www.w3.org/Graphics/SVG/1.1/DTD/svg11.dtd" >
<svg xmlns="http://www.w3.org/2000/svg">
<metadata></metadata>
<defs>
<font id="exocetlight" horiz-adv-x="1716" >
<font-face units-per-em="2048" ascent="1638" descent="-410" />
<missing-glyph horiz-adv-x="835" />
<glyph horiz-adv-x="2048" />
<glyph horiz-adv-x="2048" />
<glyph unicode="&#xd;" horiz-adv-x="0" />
<glyph unicode=" "  horiz-adv-x="835" />
<glyph unicode="&#x09;" horiz-adv-x="835" />
<glyph unicode="&#xa0;" horiz-adv-x="835" />
<glyph unicode="!" horiz-adv-x="835" d="M229 92l148 148l147 -148l-147 -147zM272 1157l105 105l104 -105l-71 -780l-33 -33l-33 33z" />
<glyph unicode="&#x22;" horiz-adv-x="1093" d="M197 1130l131 132l131 -132l-131 -327zM635 1130l131 132l131 -132l-131 -327z" />
<glyph unicode="#" horiz-adv-x="1060" d="M150 553v94h149l29 191h-131v94h145l39 264h104l-39 -264h228l39 264h102l-39 -264h137v-94h-151l-29 -191h131v-94h-145l-39 -264h-102l38 264h-227l-41 -264h-102l39 264h-135zM403 647h228l28 191h-229z" />
<glyph unicode="$" horiz-adv-x="1220" d="M233 244l168 73l13 -20q-43 -27 -43 -55q0 -37 47 -82q57 -55 139 -66v492l-70 39q-119 66 -165 137q-39 61 -39 151q0 115 82 199q76 78 192 96v99h109v-101q186 -29 272 -194l-139 -125l-17 26q33 31 33 58q0 37 -44 72.5t-105 48.5v-416l116 -62q197 -104 197 -301 q0 -129 -90 -220t-223 -113v-115h-109v110q-150 10 -244 119q-63 74 -80 150zM408 913q-1 -100 149 -180v357q-150 -31 -149 -177zM666 96q86 20 136 79.5t50 139.5q0 63 -47 113q-37 39 -129 94l-10 6v-432z" />
<glyph unicode="%" horiz-adv-x="1673" d="M131 872q0 135 94 229.5t230 94.5q133 0 227 -94.5t94 -229.5q0 -133 -94 -227t-227 -94q-135 0 -229.5 94t-94.5 227zM231 872q0 -70 39 -124l310 309q-55 39 -125 39q-92 0 -158 -65.5t-66 -158.5zM336 684q51 -33 119 -33q92 0 156.5 64.5t64.5 156.5q0 68 -33 119z M418 0l729 1196h108l-729 -1196h-108zM897 324q0 133 94 227t228 94q133 0 228 -94t95 -227q0 -135 -95 -229.5t-228 -94.5t-227.5 94t-94.5 230zM995 324q0 -66 41 -127l310 309q-55 39 -127 39q-92 0 -158 -64.5t-66 -156.5zM1102 133q47 -33 117 -33q92 0 157.5 66 t65.5 158q0 61 -33 116z" />
<glyph unicode="&#x26;" horiz-adv-x="1523" d="M240 356q0 215 188 332q-109 92 -109 234q0 127 90.5 216t217.5 89t216 -89t89 -216q0 -141 -109 -234q59 -35 156 -151l98 -119l58 53q47 43 47 70q0 20 -23 53q-2 4 -8 10l14 27l11 -13q23 -29 61 -77l68 -78q23 -23 67 -70l12 -14l-28 -8l-10 10q-33 31 -58 31 q-27 0 -69 -39l-60 -54l164 -196q76 -92 147 -100q8 -2 17 0l10 -27h-18q-12 0 -45 2t-54 2q-25 0 -110 -6l-203 239l-182 -163q-113 -100 -258 -101q-160 0 -273.5 114t-113.5 273zM367 356q0 -106 76.5 -183t183.5 -77q102 0 190 82l166 154l-184 213q-59 70 -172 69 q-106 0 -183 -75.5t-77 -182.5zM446 922q0 -76 52.5 -128.5t128.5 -52.5q74 0 127 52.5t53 128.5q0 74 -53.5 127t-126.5 53q-76 0 -128.5 -53.5t-52.5 -126.5z" />
<glyph unicode="'" horiz-adv-x="655" d="M197 1130l131 132l131 -132l-131 -327z" />
<glyph unicode="(" horiz-adv-x="983" d="M393 -25v1227l326 246l49 -59l-260 -246v-1106l260 -246l-49 -61z" />
<glyph unicode=")" horiz-adv-x="983" d="M215 -209l260 246v1106l-260 246l49 59l326 -246v-1227l-326 -245z" />
<glyph unicode="*" horiz-adv-x="933" d="M168 715l33 131l57 -15l98 58l-98 57l-57 -14l-33 129l129 37l16 -58l101 -57v115l-41 41l94 94l94 -94l-41 -41v-113l98 55l19 58l129 -37l-33 -129l-57 14l-101 -57l101 -58l57 15l33 -131l-129 -35l-19 55l-98 58v-115l41 -41l-94 -94l-94 94l41 41v115l-101 -58 l-16 -55z" />
<glyph unicode="+" horiz-adv-x="1316" d="M348 459v18q0 18 3 53t3 45v101q0 12 -3 47t-3 51v19l29 -11v-16q4 -45 23.5 -60.5t76.5 -15.5h117v117q0 59 -15.5 77.5t-60.5 22.5h-14l-12 29h18q18 0 53 -3t45 -3h101q12 0 47 3t51 3h18l-10 -29h-16q-45 -4 -60.5 -22.5t-15.5 -77.5v-117h117q59 0 77.5 15.5 t22.5 60.5v16l29 11v-19q0 -16 -3 -51t-3 -47v-101q0 -10 3 -44.5t3 -53.5v-18l-29 12v14q-4 45 -22.5 60.5t-77.5 15.5h-117v-117q0 -57 15.5 -76.5t60.5 -23.5h16l10 -29h-18q-16 0 -51 3.5t-47 3.5h-101q-10 0 -45 -3.5t-53 -3.5h-18l12 29h14q45 4 60.5 23.5t15.5 76.5 v117h-117q-57 0 -76.5 -15.5t-23.5 -60.5v-14z" />
<glyph unicode="," horiz-adv-x="655" d="M160 -109l110 111l-90 90l148 148l147 -148l-258 -258z" />
<glyph unicode="-" horiz-adv-x="1124" d="M344 459v18q0 18 2 53t2 45v101q0 12 -2 47t-2 51v19l29 -11v-16q4 -45 22.5 -60.5t75.5 -15.5h180q59 0 78 15.5t23 60.5v16l28 11v-19q0 -16 -3 -51t-3 -47v-101q0 -10 3 -44.5t3 -53.5v-18l-28 12v14q-4 45 -22.5 60.5t-78.5 15.5h-180q-57 0 -75.5 -15.5t-22.5 -60.5 v-14z" />
<glyph unicode="." horiz-adv-x="655" d="M180 92l148 148l147 -148l-147 -147z" />
<glyph unicode="/" horiz-adv-x="716" d="M-78 -281l785 1610l75 23l27 -74l-782 -1606l-78 -26z" />
<glyph unicode="0" d="M229 598q0 260 184.5 444.5t444.5 184.5q262 0 445.5 -183.5t183.5 -445.5q0 -260 -183.5 -444.5t-445.5 -184.5q-260 0 -444.5 184.5t-184.5 444.5zM356 598q0 -174 107 -309l704 706q-139 106 -309 107q-207 0 -354.5 -148.5t-147.5 -355.5zM549 201q139 -106 309 -107 q207 0 355.5 148.5t148.5 355.5q0 174 -107 307z" />
<glyph unicode="1" horiz-adv-x="913" d="M287 -4l12 27h14q45 4 60.5 23.5t15.5 76.5v950q0 57 -15.5 76.5t-60.5 24.5h-14l-12 26h18q18 0 53 -2t45 -2h109q12 0 47 2t51 2h17l-11 -26h-14q-45 -4 -61.5 -24t-16.5 -77v-950q0 -57 16.5 -76.5t61.5 -23.5h14l11 -27h-17q-16 0 -51 2t-47 2h-109q-10 0 -44.5 -2 t-53.5 -2h-18z" />
<glyph unicode="2" horiz-adv-x="1232" d="M164 0l586 606q121 125 120 234q0 109 -73.5 184.5t-180.5 75.5q-106 0 -183 -76t-77 -184q0 -43 70 -49h14l13 -29h-19q-16 0 -51 2t-47 2h-103q-4 51 -4 74q0 160 114 273.5t273 113.5q160 0 274 -114t114 -273q0 -86 -33 -152q-35 -76 -131 -174l-375 -387h426 q57 0 76.5 16.5t23.5 61.5v14l29 12v-18q0 -16 -3 -51t-3 -47v-119q-80 4 -123 4h-727z" />
<glyph unicode="3" horiz-adv-x="1232" d="M229 356q0 23 4 74h103q12 0 47 2t51 2h19l-13 -28h-14q-70 -6 -70 -50q0 -106 77 -183t183 -77t182 77t76 183q0 100 -67 174q-82 88 -221 88q-68 0 -148 -22l357 473h-402q-57 0 -76.5 -16.5t-23.5 -61.5v-14l-27 -12v18q0 18 2 53t2 45v119q80 -4 123 -4h660 l-351 -463q129 -31 215.5 -136t86.5 -241q0 -160 -114 -273.5t-274 -113.5t-273.5 114t-113.5 273z" />
<glyph unicode="4" horiz-adv-x="1236" d="M125 297l670 958v-831h102q57 0 75.5 16.5t22.5 61.5v14l29 12v-18q0 -16 -2 -51t-2 -47v-103q0 -10 2 -45t2 -53v-18l-29 12v14q-4 45 -22.5 61.5t-75.5 16.5h-102v-174q0 -57 16 -76.5t61 -23.5h15l10 -27h-16q-16 0 -51 2t-48 2h-102q-10 0 -45 -2t-53 -2h-19l12 27 h15q45 4 61.5 23.5t16.5 76.5v174h-543zM358 424h310v442z" />
<glyph unicode="5" horiz-adv-x="1232" d="M229 356q0 23 4 74h103q12 0 47 2t51 2h19l-13 -28h-14q-70 -6 -70 -50q0 -106 77 -183t183 -77t182 77t76 183t-75.5 182t-182.5 76q-143 0 -215 -63l-125 27l89 618h448q43 0 123 4v-119q0 -10 2 -45t2 -53v-18l-27 12v14q-6 45 -24.5 61.5t-75.5 16.5h-340l-53 -383 q78 55 196 55q160 0 274 -112.5t114 -272.5t-114 -273.5t-274 -113.5t-273.5 114t-113.5 273z" />
<glyph unicode="6" horiz-adv-x="1232" d="M229 356q0 80 37 162q16 37 76 135l334 547h127q20 0 53 3t45 3h19l-13 -28q-8 2 -14 0q-49 -6 -66 -17q-35 -18 -75 -84l-211 -342q35 6 75 6q160 0 274 -112.5t114 -272.5t-114 -273.5t-274 -113.5t-273.5 114t-113.5 273zM356 356q0 -106 77 -183t183 -77t182 77 t76 183t-75.5 182t-182.5 76q-106 0 -183 -75.5t-77 -182.5z" />
<glyph unicode="7" horiz-adv-x="1298" d="M221 965v18q0 18 2 53t2 45v119q80 -4 123 -4h711l-486 -1202q-88 6 -114 6q-18 0 -57.5 -2t-53.5 -2h-16l10 27q8 -2 14 0q96 12 131 100l381 946h-520q-57 0 -75.5 -16.5t-22.5 -61.5v-14z" />
<glyph unicode="8" horiz-adv-x="1251" d="M240 356q0 215 188 332q-109 92 -109 234q0 127 90.5 216t217.5 89t216 -89t89 -216q0 -141 -109 -234q189 -115 189 -332q0 -160 -113 -273.5t-272 -113.5q-160 0 -273.5 114t-113.5 273zM367 356q0 -106 76.5 -183t183.5 -77q106 0 182 77t76 183t-76 182t-182 76 t-183 -75.5t-77 -182.5zM446 922q0 -76 52.5 -128.5t128.5 -52.5q74 0 127 52.5t53 128.5q0 74 -53.5 127t-126.5 53q-76 0 -128.5 -53.5t-52.5 -126.5z" />
<glyph unicode="9" horiz-adv-x="1232" d="M229 840q0 160 114 273.5t273 113.5q160 0 274 -113.5t114 -273.5q0 -80 -37 -160q-14 -33 -78 -137l-332 -547h-127q-20 0 -53 -3t-45 -3h-19l11 28q8 -2 16 0q47 6 66 17q33 18 73 84l213 342q-37 -6 -76 -6q-160 0 -273.5 112.5t-113.5 272.5zM356 840q0 -106 77 -182 t183 -76t182 76t76 182t-75.5 183t-182.5 77q-106 0 -183 -76t-77 -184z" />
<glyph unicode=":" horiz-adv-x="655" d="M180 92l148 148l147 -148l-147 -147zM180 715l148 147l147 -147l-147 -148z" />
<glyph unicode=";" horiz-adv-x="655" d="M160 -109l110 111l-90 90l148 148l147 -148l-258 -258zM180 715l148 147l147 -147l-147 -148z" />
<glyph unicode="&#x3c;" horiz-adv-x="1093" d="M160 1114l147 148l148 -148l-90 -90l110 -111l-57 -57zM600 1114l148 148l147 -148l-90 -90l108 -111l-57 -57z" />
<glyph unicode="=" horiz-adv-x="1124" d="M279 344v18q0 18 2 53.5t2 45.5v100h557v-100q0 -10 3 -45t3 -54v-18l-29 12v15q-4 45 -22.5 60t-77.5 15h-311q-57 0 -76 -15t-23 -60v-15zM279 889v18l28 -10v-16q4 -45 22.5 -60.5t76.5 -15.5h311q59 0 77.5 15.5t22.5 60.5v16l29 10v-18q0 -16 -3 -51t-3 -47v-101 h-557v101q0 12 -2 46.5t-2 51.5z" />
<glyph unicode="&#x3e;" horiz-adv-x="1093" d="M160 913l110 111l-90 90l148 148l147 -148l-258 -258zM600 913l109 111l-91 90l148 148l147 -148l-256 -258z" />
<glyph unicode="?" horiz-adv-x="1310" d="M229 840q0 160 114 273.5t273 113.5q160 0 274 -113.5t114 -273.5q0 -190 -164 -320l-219 -172v-49l-70 -72l-72 72v80l271 233q121 104 120 228q0 109 -73.5 184.5t-180.5 75.5q-106 0 -183 -76t-77 -184q0 -43 70 -49h14l13 -29h-19q-16 0 -51 2t-47 2h-103 q-4 51 -4 74zM436 59l115 115l115 -115l-115 -114z" />
<glyph unicode="@" horiz-adv-x="1660" d="M229 598q0 262 185.5 447.5t443.5 181.5q244 -4 409 -157t165 -376q0 -184 -117 -307q-106 -117 -246 -117q-39 0 -74 13q-66 -27 -137 -27q-143 0 -242.5 99.5t-99.5 242.5t99.5 242.5t242.5 99.5q84 0 148 -33l98 39v-586q96 6 162.5 98.5t66.5 219.5q0 195 -137 315.5 t-338 118.5q-211 -2 -362.5 -152.5t-151.5 -361.5t151.5 -362.5t362.5 -151.5t354 127l95 2q6 0 43 2q31 2 55 2h18l-12 -29h-14q-61 -6 -115 -55q-182 -164 -424 -164q-260 0 -444.5 184.5t-184.5 444.5zM635 598q0 -92 65.5 -157.5t157.5 -65.5q84 0 139 47v352 q-55 47 -139 47q-92 0 -157.5 -65.5t-65.5 -157.5z" />
<glyph unicode="A" horiz-adv-x="1536" d="M84 33l22 20l13 -8q29 -8 43 -8q39 0 69 67l535 1158l534 -1158q31 -67 69 -67h1q14 0 43 8l12 8l23 -20l-16 -8q-35 -12 -93 -37l-90 -43q-29 -16 -88 -47l-16 -9l-2 33q4 2 14 6q45 27 45 58q0 23 -18 65l-47 105h-742l-47 -105q-18 -43 -18 -65q0 -31 45 -58 q6 -4 14 -6l-2 -33l-16 9q-33 18 -88 47l-90 43q-31 10 -93 37zM444 266h643l-321 725z" />
<glyph unicode="B" horiz-adv-x="1196" d="M225 -4l11 27h14q45 4 61.5 23.5t16.5 76.5v950q0 57 -16.5 76.5t-61.5 24.5h-14l-11 26h17q18 0 53 -2t45 -2h115q25 0 63 2h62q152 0 246 -74.5t94 -203.5q0 -160 -121 -232q84 -39 137 -121q59 -89 59 -202q0 -154 -105.5 -259.5t-264.5 -105.5h-285q-10 0 -45 -2 t-53 -2h-17zM455 121h163q104 0 175 71t71 173q0 100 -70.5 171.5t-175.5 71.5h-163v-487zM455 721h157q78 0 128.5 53t50.5 129t-50.5 129t-128.5 53h-157v-364z" />
<glyph unicode="C" horiz-adv-x="1417" d="M229 598q0 260 184.5 444.5t444.5 184.5q197 0 350 -107v-96q0 -8 3 -38t3 -52v-16h-32q-10 66 -64 106q-129 74 -260 74q-205 0 -352.5 -146.5t-147.5 -353.5q0 -205 147.5 -352.5t352.5 -147.5q135 0 275 86q41 45 51 103h24v-17q0 -20 -3 -50t-3 -40l6 -104 q-156 -106 -350 -107q-260 0 -444.5 184.5t-184.5 444.5z" />
<glyph unicode="D" horiz-adv-x="1527" d="M225 -4l11 27h14q45 4 61.5 23.5t16.5 76.5v950q0 57 -16.5 76.5t-61.5 24.5h-14l-11 26h17q18 0 53 -2t45 -2h123q25 0 96.5 2t124.5 2q254 0 434 -173t180 -425q0 -256 -178 -430t-436 -174h-119q-74 2 -78 2h-147q-10 0 -45 -2t-53 -2h-17zM459 115h231q199 0 339 141 t140 340q0 201 -140 343t-339 142h-231v-966z" />
<glyph unicode="E" horiz-adv-x="1355" d="M297 469v18q0 18 2 53t2 46v100q0 12 -2 47t-2 51v19l27 -12v-15q6 -41 20 -57.5t57 -18.5v496h512q59 0 78 16.5t23 61.5v14l28 10v-16q0 -16 -3 -51t-3 -47v-103q0 -10 3 -45t3 -53v-18l-28 12v14q-4 45 -22.5 61.5t-78.5 16.5h-385v-369h377q57 0 75.5 15.5t23.5 60.5 v15l28 12v-19q0 -16 -2 -51t-2 -47v-100q0 -10 2 -45t2 -54v-18l-28 10v17q-4 45 -22.5 60t-76.5 15h-377v-444h385q59 0 78 16.5t23 61.5v14l28 12v-18q0 -16 -3 -51t-3 -47v-103q0 -10 3 -46t3 -52v-16l-28 10v14q-4 45 -22.5 61.5t-78.5 16.5h-397l-115 -115v686 q-43 -2 -57 -18t-20 -57v-17z" />
<glyph unicode="F" horiz-adv-x="1224" d="M297 469v18q0 18 2 53t2 46v100q0 12 -2 47t-2 51v19l27 -12v-15q6 -41 20 -57.5t57 -18.5v496h512q59 0 78 16.5t23 61.5v14l28 10v-16q0 -16 -3 -51t-3 -47v-103q0 -10 3 -45t3 -53v-18l-28 12v14q-4 45 -22.5 61.5t-78.5 16.5h-385v-369h377q57 0 75.5 15.5t23.5 60.5 v15l28 12v-19q0 -16 -2 -51t-2 -47v-100q0 -10 2 -45t2 -54v-18l-28 10v17q-4 45 -22.5 60t-76.5 15h-377v-559l-127 -127v686q-43 -2 -57 -18t-20 -57v-17z" />
<glyph unicode="G" horiz-adv-x="1474" d="M229 598q0 260 184.5 444.5t444.5 184.5q197 0 350 -107v-96q0 -8 3 -38t3 -52v-16h-32q-10 66 -64 106q-129 74 -260 74q-205 0 -352.5 -146.5t-147.5 -353.5q0 -205 147.5 -352.5t352.5 -147.5q119 0 246 70v356h-113q-57 0 -76.5 -16t-23.5 -62v-14l-27 -10v16 q0 18 2 53t2 46v24l-4 88h367v-555q-195 -125 -373 -125q-260 0 -444.5 184.5t-184.5 444.5z" />
<glyph unicode="H" horiz-adv-x="1421" d="M225 -4l11 27h14q45 4 61.5 23.5t16.5 76.5v950q0 57 -16.5 76.5t-61.5 24.5h-14l-11 26h17q18 0 53 -2t45 -2h102q12 0 47 2t52 2h18l-12 -26h-15q-45 -4 -61 -24t-16 -77v-397h512v397q0 57 -16.5 76.5t-61.5 24.5h-15l-10 26h17q18 0 53 -2t45 -2h102q12 0 47 2t52 2 h18l-12 -26h-15q-45 -4 -61 -24t-16 -77v-950q0 -57 16 -76.5t61 -23.5h15l12 -27h-18q-16 0 -51 2t-48 2h-102q-10 0 -45 -2t-53 -2h-17l10 27h15q45 4 61.5 23.5t16.5 76.5v440h-512v-440q0 -57 16 -76.5t61 -23.5h15l12 -27h-18q-16 0 -51 2t-48 2h-102q-10 0 -45 -2 t-53 -2h-17z" />
<glyph unicode="I" horiz-adv-x="847" d="M254 -4l12 27h15q45 4 60 23.5t15 76.5v950q0 57 -15 76.5t-60 24.5h-15l-12 26h18q18 0 53 -2t46 -2h108q12 0 47 2t52 2h16l-10 -26h-15q-45 -4 -61 -24t-16 -77v-950q0 -57 16 -76.5t61 -23.5h15l10 -27h-16q-16 0 -51 2t-48 2h-108q-10 0 -45 -2t-54 -2h-18z" />
<glyph unicode="J" horiz-adv-x="847" d="M258 1200h16q18 0 53 -2t46 -2h102q12 0 47 2t51 2h19l-12 -26h-15q-45 -4 -61.5 -24t-16.5 -77v-1380l-127 -213v1593q0 57 -16 76.5t-61 24.5h-15z" />
<glyph unicode="K" horiz-adv-x="1325" d="M225 -4l11 27h14q45 4 61.5 23.5t16.5 76.5v950q0 57 -16.5 76.5t-61.5 24.5h-14l-11 26h17q18 0 53 -2t45 -2h102q12 0 47 2t52 2h18l-12 -26h-15q-45 -4 -61 -24t-16 -77v-282l307 276q47 43 47 70q0 20 -25 55l-10 8l14 29l13 -12q23 -29 63 -78l58 -68q20 -18 69 -67 l13 -17l-29 -8l-10 10q-31 31 -54 31q-27 0 -71 -41l-342 -309l546 -547q63 -63 88 -79.5t62 -20.5q6 -2 14 0l13 -27h-19q-12 0 -45 2t-53 2q-25 0 -111 -6l-538 536v-407q0 -57 16 -76.5t61 -23.5h15l12 -27h-18q-16 0 -51 2t-48 2h-102q-10 0 -45 -2t-53 -2h-17z" />
<glyph unicode="L" horiz-adv-x="1179" d="M225 1200h17q18 0 53 -2t45 -2h102q12 0 47 2t52 2h18l-12 -26h-15q-45 -4 -61 -24t-16 -77v-946h422q57 0 76.5 16.5t23.5 61.5v14l27 12v-18q0 -16 -2.5 -51t-2.5 -47v-103q0 -10 2.5 -46t2.5 -52v-16l-27 10v14q-4 45 -23.5 61.5t-76.5 16.5h-435l-114 -115v1188 q0 57 -16.5 76.5t-61.5 24.5h-14z" />
<glyph unicode="M" horiz-adv-x="1843" d="M225 -4l13 27h14q45 4 61.5 23.5t16.5 76.5v950q0 57 -16.5 76.5t-61.5 24.5h-14l-13 26h19q18 0 53 -2t45 -2h516q-2 47 -18.5 63.5t-57.5 20.5h-16l-10 27h18q18 0 53 -2t45 -2h101q12 0 47 2t51 2h19l-13 -27h-14q-41 -4 -57.5 -20.5t-18.5 -63.5h516q12 0 47 2t52 2 h16l-10 -26h-15q-45 -4 -61 -24t-16 -77v-950q0 -57 16 -76.5t61 -23.5h15l10 -27h-16q-16 0 -51 2t-48 2h-102q-10 0 -45 -2t-53 -2h-19l12 27h15q45 4 61.5 23.5t16.5 76.5v946h-402v-946q0 -57 15.5 -76.5t60.5 -23.5h14l13 -27h-19q-16 0 -51 2t-47 2h-101 q-10 0 -44.5 -2t-53.5 -2h-18l10 27h16q45 4 60.5 23.5t15.5 76.5v946h-401v-946q0 -57 16 -76.5t62 -23.5h14l12 -27h-18q-16 0 -51 2t-48 2h-102q-10 0 -45 -2t-53 -2h-19z" />
<glyph unicode="N" horiz-adv-x="1601" d="M225 -4l11 27h14q45 4 61.5 23.5t16.5 76.5v950q0 57 -16.5 76.5t-61.5 24.5h-14l-11 26h17q18 0 53 -2t45 -2h102q12 0 47 2t52 2h18l-12 -26h-15q-45 -4 -61 -24t-16 -77v-16l692 -733v749q0 57 -16.5 76.5t-61.5 24.5h-14l-11 26h17q18 0 53 -2t45 -2h103q12 0 46.5 2 t51.5 2h18l-12 -26h-14q-45 -4 -61.5 -24t-16.5 -77v-950q0 -57 16.5 -76.5t61.5 -23.5h14l12 -27h-18q-16 0 -51 2t-47 2h-103q-10 0 -45 -2t-53 -2h-17l11 27h14q45 4 61.5 23.5t16.5 76.5v12l-692 737v-749q0 -57 16 -76.5t61 -23.5h15l12 -27h-18q-16 0 -51 2t-48 2 h-102q-10 0 -45 -2t-53 -2h-17z" />
<glyph unicode="O" d="M229 598q0 260 184.5 444.5t444.5 184.5q262 0 445.5 -183.5t183.5 -445.5q0 -260 -183.5 -444.5t-445.5 -184.5q-260 0 -444.5 184.5t-184.5 444.5zM358 543q20 -174 145.5 -299.5t299.5 -145.5v445h-445zM358 653h445v445q-174 -20 -299 -144.5t-146 -300.5zM913 98 q174 20 299.5 145.5t145.5 299.5h-445v-445zM913 653h445q-20 176 -144 300t-301 145v-445z" />
<glyph unicode="P" horiz-adv-x="1146" d="M225 -4l11 27h14q45 4 61.5 23.5t16.5 76.5v950q0 57 -16.5 76.5t-61.5 24.5h-14l-11 26h17q18 0 53 -2t45 -2h281q150 0 262 -102t112 -252q0 -154 -110.5 -262.5t-263.5 -108.5h-166v-348q0 -57 16 -76.5t61 -23.5h15l12 -27h-18q-16 0 -51 2t-48 2h-102q-10 0 -45 -2 t-53 -2h-17zM455 586h157q109 0 179.5 74t70.5 180q0 104 -70.5 173.5t-179.5 69.5h-157v-497z" />
<glyph unicode="Q" d="M229 598q0 260 184.5 444.5t444.5 184.5q262 0 445.5 -183.5t183.5 -445.5q0 -244 -163 -423t-402 -204v-104q0 -57 16 -75.5t61 -24.5h15l12 -27h-18q-16 0 -51 2t-48 2h-102q-10 0 -45 -2t-53 -2h-17l10 27h15q45 6 61.5 24.5t16.5 75.5v104q-240 25 -403 204t-163 423 zM356 598q0 -190 126 -332.5t313 -167.5v291q0 57 -16.5 75.5t-61.5 22.5h-15l-10 29h17q18 0 53 -2t45 -2h102q12 0 47 2t52 2h18l-12 -29h-15q-45 -4 -61 -22.5t-16 -75.5v-291q186 25 313 167.5t127 332.5q0 207 -148.5 355.5t-355.5 148.5t-354.5 -148.5t-147.5 -355.5z " />
<glyph unicode="R" horiz-adv-x="1392" d="M225 -4l11 27h14q45 4 61.5 23.5t16.5 76.5v950q0 57 -16.5 76.5t-61.5 24.5h-14l-11 26h17q18 0 53 -2t45 -2h281q147 0 248.5 -91t101.5 -235q0 -106 -64.5 -197t-173.5 -128l424 -422q63 -63 88 -79.5t62 -20.5q6 -2 14 0l10 -27h-16q-14 0 -47 2t-51 2q-27 0 -113 -6 l-535 534h-114v-405q0 -57 16 -76.5t61 -23.5h15l12 -27h-18q-16 0 -51 2t-48 2h-102q-10 0 -45 -2t-53 -2h-17zM455 643h157q102 0 167 64.5t65 160.5q0 92 -62.5 153.5t-169.5 61.5h-157v-440z" />
<glyph unicode="S" horiz-adv-x="1187" d="M217 244l168 73l12 -20q-43 -27 -43 -55q0 -41 58 -90q70 -61 168 -62q115 0 185.5 65.5t70.5 159.5q0 111 -177 207l-188 103q-119 66 -166 137q-39 61 -39 151q0 129 96.5 213t227.5 84q229 0 332 -198l-140 -125l-16 26q33 31 33 58q0 45 -60.5 85t-136.5 40 q-104 0 -160 -58q-51 -49 -51 -125q0 -98 154 -180l221 -119q197 -106 197 -301q0 -150 -115 -245t-275 -95q-166 0 -270 113q-70 76 -86 158z" />
<glyph unicode="T" horiz-adv-x="1497" d="M147 965v18q0 18 2.5 53t2.5 45v103q0 12 -2.5 47t-2.5 51v16l29 -10v-14q4 -45 22.5 -61.5t75.5 -16.5h949q57 0 75.5 16.5t24.5 61.5v14l27 10v-16q0 -16 -2 -51t-2 -47v-103q0 -10 2 -45t2 -53v-18l-27 12v14q-6 45 -24.5 61.5t-75.5 16.5h-410v-946q0 -57 15.5 -76.5 t60.5 -23.5h16l10 -27h-18q-16 0 -51 2t-47 2h-101q-10 0 -45 -2t-53 -2h-18l12 27h14q45 4 60.5 23.5t15.5 76.5v946h-410q-57 0 -75.5 -16.5t-22.5 -61.5v-14z" />
<glyph unicode="U" horiz-adv-x="1763" d="M152 1200h16q18 0 53 -2t45 -2h101q12 0 47 2t51 2h18l-12 -26h-14q-45 -4 -60.5 -24t-15.5 -77v-475q0 -207 147.5 -355.5t354.5 -148.5t355 148.5t148 355.5v475q0 57 -16 76.5t-61 24.5h-15l-12 26h18q18 0 53.5 -2t45.5 -2h100q12 0 47 2t51 2h19l-12 -26h-15 q-45 -4 -61.5 -24t-16.5 -77v-475q0 -260 -183 -444.5t-445 -184.5q-260 0 -444.5 184.5t-184.5 444.5v475q0 57 -16.5 76.5t-61.5 24.5h-14z" />
<glyph unicode="V" horiz-adv-x="1632" d="M82 1200h18q18 0 53 -2t46 -2h100q12 0 47 2t51 2h19l-10 -26h-17q-49 -6 -49 -33q0 -20 25 -68l450 -864l451 864q25 45 24 66q0 29 -49 35h-16l-11 26h19q18 0 53 -2t45 -2h101q12 0 46.5 2t51.5 2h18l-12 -26h-14q-43 -4 -65.5 -25t-51.5 -76l-590 -1134l-590 1134 q-29 55 -51 75.5t-65 25.5h-15z" />
<glyph unicode="W" horiz-adv-x="2129" d="M61 1200h19q18 0 53 -2t45 -2h103q12 0 46.5 2t51.5 2h18l-12 -26h-14q-49 -6 -49 -33q0 -20 24 -68l449 -864l194 375l-254 489q-49 92 -117 101h-14l-10 26h16q18 0 53 -2t46 -2h102q12 0 47 2t51 2h19l-13 -26h-14q-49 -6 -49 -33q0 -20 25 -68l184 -356l186 356 q23 43 23 66q0 29 -49 35h-15l-12 26h18q18 0 53 -2t46 -2h102q12 0 47 2t51 2h17l-10 -26h-15q-68 -8 -117 -101l-256 -489l195 -375l453 864q23 45 22 66q0 29 -49 35h-14l-13 26h19q18 0 53 -2t45 -2h103q12 0 46.5 2t51.5 2h18l-12 -26h-14q-68 -8 -117 -101l-592 -1134 l-264 507l-266 -507l-590 1134q-49 92 -117 101h-14z" />
<glyph unicode="X" horiz-adv-x="1720" d="M188 160l29 10q2 -2 8 -10q35 -27 56 -27q27 0 69 43l422 422l-422 422q-43 43 -69 43q-20 0 -56 -27q-4 -6 -8 -10l-29 10l13 15q29 25 73 65l72 72q29 29 66 72l12 14l12 -29l-10 -10q-27 -33 -27 -55q0 -27 43 -70l422 -420l420 420q43 43 43 72q0 20 -27 53 q-4 6 -10 10l13 29l12 -14q25 -27 65 -72l74 -72q25 -20 72 -65l12 -15l-27 -10l-10 10q-35 27 -55 27q-27 0 -70 -43l-422 -422l422 -422q43 -43 70 -43q20 0 55 27q4 6 10 10l27 -10l-12 -15q-27 -25 -72 -65l-74 -72q-20 -25 -65 -71l-12 -15l-13 29q4 2 10 10 q27 33 27 53q0 29 -43 72l-420 420l-422 -420q-43 -43 -43 -70q0 -23 27 -55q4 -6 10 -10l-12 -29l-12 15q-37 43 -66 71l-72 72q-25 23 -73 65z" />
<glyph unicode="Y" horiz-adv-x="1605" d="M121 1036l14 15q12 12 38 34.5t34 30.5l72 72q29 29 65 72l12 14l13 -29l-11 -10q-27 -35 -26 -55q0 -27 43 -70l422 -420l420 420q43 43 43 72q0 20 -27 53q-4 6 -8 10l10 29l14 -14q25 -27 66 -72l71 -72q25 -20 72 -65l12 -15l-26 -10l-10 10q-35 27 -56 27 q-27 0 -69 -43l-449 -451v-446q0 -57 16.5 -76.5t61.5 -23.5h14l11 -27h-17q-16 0 -51 2t-47 2h-103q-10 0 -44.5 -2t-53.5 -2h-18l12 27h14q45 4 61.5 23.5t16.5 76.5v446l-450 451q-43 43 -70 43q-18 0 -53 -27l-10 -10z" />
<glyph unicode="Z" horiz-adv-x="1372" d="M238 965v18q0 18 2 53t2 45v103q0 12 -2 47t-2 51v16l28 -10v-14q4 -45 22.5 -61.5t76.5 -16.5h782l-668 -1069h551q57 0 76.5 16.5t23.5 61.5v14l29 12v-18q0 -16 -3 -51t-3 -47v-103q0 -10 3 -46t3 -52v-16l-29 10v14q-4 45 -23.5 61.5t-76.5 16.5h-786l669 1069h-548 q-57 0 -76 -16.5t-23 -61.5v-14z" />
<glyph unicode="[" horiz-adv-x="983" d="M393 -221v1620h375v-60h-260v-1499h260v-61h-375z" />
<glyph unicode="\" horiz-adv-x="92" />
<glyph unicode="]" horiz-adv-x="983" d="M215 -160h260v1499h-260v60h375v-1620h-375v61z" />
<glyph unicode="^" horiz-adv-x="978" d="M266 987l183 191h69l182 -191h-90l-127 90l-127 -90h-90z" />
<glyph unicode="_" horiz-adv-x="894" d="M-8 -287h909v-67h-909v67z" />
<glyph unicode="`" horiz-adv-x="655" d="M121 1178h174l184 -191h-92z" />
<glyph unicode="a" horiz-adv-x="1536" d="M84 33l22 20l13 -8q29 -8 43 -8q39 0 69 67l535 1158l534 -1158q31 -67 69 -67h1q14 0 43 8l12 8l23 -20l-16 -8q-35 -12 -93 -37l-90 -43q-29 -16 -88 -47l-16 -9l-2 33q4 2 14 6q45 27 45 58q0 23 -18 65l-47 105h-742l-47 -105q-18 -43 -18 -65q0 -31 45 -58 q6 -4 14 -6l-2 -33l-16 9q-33 18 -88 47l-90 43q-31 10 -93 37zM444 266h643l-321 725z" />
<glyph unicode="b" horiz-adv-x="1196" d="M225 -4l11 27h14q45 4 61.5 23.5t16.5 76.5v950q0 57 -16.5 76.5t-61.5 24.5h-14l-11 26h17q18 0 53 -2t45 -2h115q25 0 63 2h62q152 0 246 -74.5t94 -203.5q0 -160 -121 -232q84 -39 137 -121q59 -89 59 -202q0 -154 -105.5 -259.5t-264.5 -105.5h-285q-10 0 -45 -2 t-53 -2h-17zM455 121h163q104 0 175 71t71 173q0 100 -70.5 171.5t-175.5 71.5h-163v-487zM455 721h157q78 0 128.5 53t50.5 129t-50.5 129t-128.5 53h-157v-364z" />
<glyph unicode="c" horiz-adv-x="1417" d="M229 598q0 260 184.5 444.5t444.5 184.5q197 0 350 -107v-96q0 -8 3 -38t3 -52v-16h-32q-10 66 -64 106q-129 74 -260 74q-205 0 -352.5 -146.5t-147.5 -353.5q0 -205 147.5 -352.5t352.5 -147.5q135 0 275 86q41 45 51 103h24v-17q0 -20 -3 -50t-3 -40l6 -104 q-156 -106 -350 -107q-260 0 -444.5 184.5t-184.5 444.5z" />
<glyph unicode="d" horiz-adv-x="1527" d="M225 -4l11 27h14q45 4 61.5 23.5t16.5 76.5v950q0 57 -16.5 76.5t-61.5 24.5h-14l-11 26h17q18 0 53 -2t45 -2h123q25 0 96.5 2t124.5 2q254 0 434 -173t180 -425q0 -256 -178 -430t-436 -174h-119q-74 2 -78 2h-147q-10 0 -45 -2t-53 -2h-17zM459 115h231q199 0 339 141 t140 340q0 201 -140 343t-339 142h-231v-966z" />
<glyph unicode="e" horiz-adv-x="1355" d="M297 469v18q0 18 2 53t2 46v100q0 12 -2 47t-2 51v19l27 -12v-15q6 -41 20 -57.5t57 -18.5v496h512q59 0 78 16.5t23 61.5v14l28 10v-16q0 -16 -3 -51t-3 -47v-103q0 -10 3 -45t3 -53v-18l-28 12v14q-4 45 -22.5 61.5t-78.5 16.5h-385v-369h377q57 0 75.5 15.5t23.5 60.5 v15l28 12v-19q0 -16 -2 -51t-2 -47v-100q0 -10 2 -45t2 -54v-18l-28 10v17q-4 45 -22.5 60t-76.5 15h-377v-444h385q59 0 78 16.5t23 61.5v14l28 12v-18q0 -16 -3 -51t-3 -47v-103q0 -10 3 -46t3 -52v-16l-28 10v14q-4 45 -22.5 61.5t-78.5 16.5h-397l-115 -115v686 q-43 -2 -57 -18t-20 -57v-17z" />
<glyph unicode="f" horiz-adv-x="1224" d="M297 469v18q0 18 2 53t2 46v100q0 12 -2 47t-2 51v19l27 -12v-15q6 -41 20 -57.5t57 -18.5v496h512q59 0 78 16.5t23 61.5v14l28 10v-16q0 -16 -3 -51t-3 -47v-103q0 -10 3 -45t3 -53v-18l-28 12v14q-4 45 -22.5 61.5t-78.5 16.5h-385v-369h377q57 0 75.5 15.5t23.5 60.5 v15l28 12v-19q0 -16 -2 -51t-2 -47v-100q0 -10 2 -45t2 -54v-18l-28 10v17q-4 45 -22.5 60t-76.5 15h-377v-559l-127 -127v686q-43 -2 -57 -18t-20 -57v-17z" />
<glyph unicode="g" horiz-adv-x="1474" d="M229 598q0 260 184.5 444.5t444.5 184.5q197 0 350 -107v-96q0 -8 3 -38t3 -52v-16h-32q-10 66 -64 106q-129 74 -260 74q-205 0 -352.5 -146.5t-147.5 -353.5q0 -205 147.5 -352.5t352.5 -147.5q119 0 246 70v356h-113q-57 0 -76.5 -16t-23.5 -62v-14l-27 -10v16 q0 18 2 53t2 46v24l-4 88h367v-555q-195 -125 -373 -125q-260 0 -444.5 184.5t-184.5 444.5z" />
<glyph unicode="h" horiz-adv-x="1421" d="M225 -4l11 27h14q45 4 61.5 23.5t16.5 76.5v950q0 57 -16.5 76.5t-61.5 24.5h-14l-11 26h17q18 0 53 -2t45 -2h102q12 0 47 2t52 2h18l-12 -26h-15q-45 -4 -61 -24t-16 -77v-397h512v397q0 57 -16.5 76.5t-61.5 24.5h-15l-10 26h17q18 0 53 -2t45 -2h102q12 0 47 2t52 2 h18l-12 -26h-15q-45 -4 -61 -24t-16 -77v-950q0 -57 16 -76.5t61 -23.5h15l12 -27h-18q-16 0 -51 2t-48 2h-102q-10 0 -45 -2t-53 -2h-17l10 27h15q45 4 61.5 23.5t16.5 76.5v440h-512v-440q0 -57 16 -76.5t61 -23.5h15l12 -27h-18q-16 0 -51 2t-48 2h-102q-10 0 -45 -2 t-53 -2h-17z" />
<glyph unicode="i" horiz-adv-x="847" d="M254 -4l12 27h15q45 4 60 23.5t15 76.5v950q0 57 -15 76.5t-60 24.5h-15l-12 26h18q18 0 53 -2t46 -2h108q12 0 47 2t52 2h16l-10 -26h-15q-45 -4 -61 -24t-16 -77v-950q0 -57 16 -76.5t61 -23.5h15l10 -27h-16q-16 0 -51 2t-48 2h-108q-10 0 -45 -2t-54 -2h-18z" />
<glyph unicode="j" horiz-adv-x="847" d="M258 1200h16q18 0 53 -2t46 -2h102q12 0 47 2t51 2h19l-12 -26h-15q-45 -4 -61.5 -24t-16.5 -77v-1380l-127 -213v1593q0 57 -16 76.5t-61 24.5h-15z" />
<glyph unicode="k" horiz-adv-x="1325" d="M225 -4l11 27h14q45 4 61.5 23.5t16.5 76.5v950q0 57 -16.5 76.5t-61.5 24.5h-14l-11 26h17q18 0 53 -2t45 -2h102q12 0 47 2t52 2h18l-12 -26h-15q-45 -4 -61 -24t-16 -77v-282l307 276q47 43 47 70q0 20 -25 55l-10 8l14 29l13 -12q23 -29 63 -78l58 -68q20 -18 69 -67 l13 -17l-29 -8l-10 10q-31 31 -54 31q-27 0 -71 -41l-342 -309l546 -547q63 -63 88 -79.5t62 -20.5q6 -2 14 0l13 -27h-19q-12 0 -45 2t-53 2q-25 0 -111 -6l-538 536v-407q0 -57 16 -76.5t61 -23.5h15l12 -27h-18q-16 0 -51 2t-48 2h-102q-10 0 -45 -2t-53 -2h-17z" />
<glyph unicode="l" horiz-adv-x="1179" d="M225 1200h17q18 0 53 -2t45 -2h102q12 0 47 2t52 2h18l-12 -26h-15q-45 -4 -61 -24t-16 -77v-946h422q57 0 76.5 16.5t23.5 61.5v14l27 12v-18q0 -16 -2.5 -51t-2.5 -47v-103q0 -10 2.5 -46t2.5 -52v-16l-27 10v14q-4 45 -23.5 61.5t-76.5 16.5h-435l-114 -115v1188 q0 57 -16.5 76.5t-61.5 24.5h-14z" />
<glyph unicode="m" horiz-adv-x="1843" d="M225 -4l13 27h14q45 4 61.5 23.5t16.5 76.5v950q0 57 -16.5 76.5t-61.5 24.5h-14l-13 26h19q18 0 53 -2t45 -2h516q-2 47 -18.5 63.5t-57.5 20.5h-16l-10 27h18q18 0 53 -2t45 -2h101q12 0 47 2t51 2h19l-13 -27h-14q-41 -4 -57.5 -20.5t-18.5 -63.5h516q12 0 47 2t52 2 h16l-10 -26h-15q-45 -4 -61 -24t-16 -77v-950q0 -57 16 -76.5t61 -23.5h15l10 -27h-16q-16 0 -51 2t-48 2h-102q-10 0 -45 -2t-53 -2h-19l12 27h15q45 4 61.5 23.5t16.5 76.5v946h-402v-946q0 -57 15.5 -76.5t60.5 -23.5h14l13 -27h-19q-16 0 -51 2t-47 2h-101 q-10 0 -44.5 -2t-53.5 -2h-18l10 27h16q45 4 60.5 23.5t15.5 76.5v946h-401v-946q0 -57 16 -76.5t62 -23.5h14l12 -27h-18q-16 0 -51 2t-48 2h-102q-10 0 -45 -2t-53 -2h-19z" />
<glyph unicode="n" horiz-adv-x="1601" d="M225 -4l11 27h14q45 4 61.5 23.5t16.5 76.5v950q0 57 -16.5 76.5t-61.5 24.5h-14l-11 26h17q18 0 53 -2t45 -2h102q12 0 47 2t52 2h18l-12 -26h-15q-45 -4 -61 -24t-16 -77v-16l692 -733v749q0 57 -16.5 76.5t-61.5 24.5h-14l-11 26h17q18 0 53 -2t45 -2h103q12 0 46.5 2 t51.5 2h18l-12 -26h-14q-45 -4 -61.5 -24t-16.5 -77v-950q0 -57 16.5 -76.5t61.5 -23.5h14l12 -27h-18q-16 0 -51 2t-47 2h-103q-10 0 -45 -2t-53 -2h-17l11 27h14q45 4 61.5 23.5t16.5 76.5v12l-692 737v-749q0 -57 16 -76.5t61 -23.5h15l12 -27h-18q-16 0 -51 2t-48 2 h-102q-10 0 -45 -2t-53 -2h-17z" />
<glyph unicode="o" d="M229 598q0 260 184.5 444.5t444.5 184.5q262 0 445.5 -183.5t183.5 -445.5q0 -260 -183.5 -444.5t-445.5 -184.5q-260 0 -444.5 184.5t-184.5 444.5zM358 543q20 -174 145.5 -299.5t299.5 -145.5v445h-445zM358 653h445v445q-174 -20 -299 -144.5t-146 -300.5zM913 98 q174 20 299.5 145.5t145.5 299.5h-445v-445zM913 653h445q-20 176 -144 300t-301 145v-445z" />
<glyph unicode="p" horiz-adv-x="1146" d="M225 -4l11 27h14q45 4 61.5 23.5t16.5 76.5v950q0 57 -16.5 76.5t-61.5 24.5h-14l-11 26h17q18 0 53 -2t45 -2h281q150 0 262 -102t112 -252q0 -154 -110.5 -262.5t-263.5 -108.5h-166v-348q0 -57 16 -76.5t61 -23.5h15l12 -27h-18q-16 0 -51 2t-48 2h-102q-10 0 -45 -2 t-53 -2h-17zM455 586h157q109 0 179.5 74t70.5 180q0 104 -70.5 173.5t-179.5 69.5h-157v-497z" />
<glyph unicode="q" d="M229 598q0 260 184.5 444.5t444.5 184.5q262 0 445.5 -183.5t183.5 -445.5q0 -244 -163 -423t-402 -204v-104q0 -57 16 -75.5t61 -24.5h15l12 -27h-18q-16 0 -51 2t-48 2h-102q-10 0 -45 -2t-53 -2h-17l10 27h15q45 6 61.5 24.5t16.5 75.5v104q-240 25 -403 204t-163 423 zM356 598q0 -190 126 -332.5t313 -167.5v291q0 57 -16.5 75.5t-61.5 22.5h-15l-10 29h17q18 0 53 -2t45 -2h102q12 0 47 2t52 2h18l-12 -29h-15q-45 -4 -61 -22.5t-16 -75.5v-291q186 25 313 167.5t127 332.5q0 207 -148.5 355.5t-355.5 148.5t-354.5 -148.5t-147.5 -355.5z " />
<glyph unicode="r" horiz-adv-x="1392" d="M225 -4l11 27h14q45 4 61.5 23.5t16.5 76.5v950q0 57 -16.5 76.5t-61.5 24.5h-14l-11 26h17q18 0 53 -2t45 -2h281q147 0 248.5 -91t101.5 -235q0 -106 -64.5 -197t-173.5 -128l424 -422q63 -63 88 -79.5t62 -20.5q6 -2 14 0l10 -27h-16q-14 0 -47 2t-51 2q-27 0 -113 -6 l-535 534h-114v-405q0 -57 16 -76.5t61 -23.5h15l12 -27h-18q-16 0 -51 2t-48 2h-102q-10 0 -45 -2t-53 -2h-17zM455 643h157q102 0 167 64.5t65 160.5q0 92 -62.5 153.5t-169.5 61.5h-157v-440z" />
<glyph unicode="s" horiz-adv-x="1187" d="M217 244l168 73l12 -20q-43 -27 -43 -55q0 -41 58 -90q70 -61 168 -62q115 0 185.5 65.5t70.5 159.5q0 111 -177 207l-188 103q-119 66 -166 137q-39 61 -39 151q0 129 96.5 213t227.5 84q229 0 332 -198l-140 -125l-16 26q33 31 33 58q0 45 -60.5 85t-136.5 40 q-104 0 -160 -58q-51 -49 -51 -125q0 -98 154 -180l221 -119q197 -106 197 -301q0 -150 -115 -245t-275 -95q-166 0 -270 113q-70 76 -86 158z" />
<glyph unicode="t" horiz-adv-x="1628" d="M213 430v19q0 18 2 53t2 45v102q0 12 -2 47t-2 52v18l29 -12v-15q4 -45 22.5 -61t75.5 -16h410v411q0 57 -15.5 76.5t-60.5 24.5h-15l-12 26h19q18 0 53 -2t45 -2h100q12 0 47 2t52 2h18l-10 -26h-17q-45 -4 -60 -24t-15 -77v-411h409q57 0 75.5 16t25.5 61v15l26 12v-18 q0 -16 -2 -51t-2 -48v-102q0 -10 2 -45t2 -53v-19l-26 12v15q-6 45 -24.5 61.5t-76.5 16.5h-409v-412q0 -57 15 -76.5t60 -23.5h17l10 -27h-18q-16 0 -51 2t-48 2h-100q-10 0 -45 -2t-53 -2h-19l12 27h15q45 4 60.5 23.5t15.5 76.5v412h-410q-57 0 -75.5 -16.5t-22.5 -61.5 v-15z" />
<glyph unicode="u" horiz-adv-x="1763" d="M152 1200h16q18 0 53 -2t45 -2h101q12 0 47 2t51 2h18l-12 -26h-14q-45 -4 -60.5 -24t-15.5 -77v-475q0 -207 147.5 -355.5t354.5 -148.5t355 148.5t148 355.5v475q0 57 -16 76.5t-61 24.5h-15l-12 26h18q18 0 53.5 -2t45.5 -2h100q12 0 47 2t51 2h19l-12 -26h-15 q-45 -4 -61.5 -24t-16.5 -77v-475q0 -260 -183 -444.5t-445 -184.5q-260 0 -444.5 184.5t-184.5 444.5v475q0 57 -16.5 76.5t-61.5 24.5h-14z" />
<glyph unicode="v" horiz-adv-x="1632" d="M82 1200h18q18 0 53 -2t46 -2h100q12 0 47 2t51 2h19l-10 -26h-17q-49 -6 -49 -33q0 -20 25 -68l450 -864l451 864q25 45 24 66q0 29 -49 35h-16l-11 26h19q18 0 53 -2t45 -2h101q12 0 46.5 2t51.5 2h18l-12 -26h-14q-43 -4 -65.5 -25t-51.5 -76l-590 -1134l-590 1134 q-29 55 -51 75.5t-65 25.5h-15z" />
<glyph unicode="w" horiz-adv-x="2129" d="M61 1200h19q18 0 53 -2t45 -2h103q12 0 46.5 2t51.5 2h18l-12 -26h-14q-49 -6 -49 -33q0 -20 24 -68l449 -864l194 375l-254 489q-49 92 -117 101h-14l-10 26h16q18 0 53 -2t46 -2h102q12 0 47 2t51 2h19l-13 -26h-14q-49 -6 -49 -33q0 -20 25 -68l184 -356l186 356 q23 43 23 66q0 29 -49 35h-15l-12 26h18q18 0 53 -2t46 -2h102q12 0 47 2t51 2h17l-10 -26h-15q-68 -8 -117 -101l-256 -489l195 -375l453 864q23 45 22 66q0 29 -49 35h-14l-13 26h19q18 0 53 -2t45 -2h103q12 0 46.5 2t51.5 2h18l-12 -26h-14q-68 -8 -117 -101l-592 -1134 l-264 507l-266 -507l-590 1134q-49 92 -117 101h-14z" />
<glyph unicode="x" horiz-adv-x="1720" d="M188 160l29 10q2 -2 8 -10q35 -27 56 -27q27 0 69 43l422 422l-422 422q-43 43 -69 43q-20 0 -56 -27q-4 -6 -8 -10l-29 10l13 15q29 25 73 65l72 72q29 29 66 72l12 14l12 -29l-10 -10q-27 -33 -27 -55q0 -27 43 -70l422 -420l420 420q43 43 43 72q0 20 -27 53 q-4 6 -10 10l13 29l12 -14q25 -27 65 -72l74 -72q25 -20 72 -65l12 -15l-27 -10l-10 10q-35 27 -55 27q-27 0 -70 -43l-422 -422l422 -422q43 -43 70 -43q20 0 55 27q4 6 10 10l27 -10l-12 -15q-27 -25 -72 -65l-74 -72q-20 -25 -65 -71l-12 -15l-13 29q4 2 10 10 q27 33 27 53q0 29 -43 72l-420 420l-422 -420q-43 -43 -43 -70q0 -23 27 -55q4 -6 10 -10l-12 -29l-12 15q-37 43 -66 71l-72 72q-25 23 -73 65z" />
<glyph unicode="y" horiz-adv-x="1605" d="M121 1036l14 15q12 12 38 34.5t34 30.5l72 72q29 29 65 72l12 14l13 -29l-11 -10q-27 -35 -26 -55q0 -27 43 -70l422 -420l420 420q43 43 43 72q0 20 -27 53q-4 6 -8 10l10 29l14 -14q25 -27 66 -72l71 -72q25 -20 72 -65l12 -15l-26 -10l-10 10q-35 27 -56 27 q-27 0 -69 -43l-449 -451v-446q0 -57 16.5 -76.5t61.5 -23.5h14l11 -27h-17q-16 0 -51 2t-47 2h-103q-10 0 -44.5 -2t-53.5 -2h-18l12 27h14q45 4 61.5 23.5t16.5 76.5v446l-450 451q-43 43 -70 43q-18 0 -53 -27l-10 -10z" />
<glyph unicode="z" horiz-adv-x="1372" d="M238 965v18q0 18 2 53t2 45v103q0 12 -2 47t-2 51v16l28 -10v-14q4 -45 22.5 -61.5t76.5 -16.5h782l-668 -1069h551q57 0 76.5 16.5t23.5 61.5v14l29 12v-18q0 -16 -3 -51t-3 -47v-103q0 -10 3 -46t3 -52v-16l-29 10v14q-4 45 -23.5 61.5t-76.5 16.5h-786l669 1069h-548 q-57 0 -76 -16.5t-23 -61.5v-14z" />
<glyph unicode="{" horiz-adv-x="1032" d="M213 596l229 229v574h375v-60h-260v-530l-213 -213l213 -213v-543h260v-61h-375v588z" />
<glyph unicode="|" horiz-adv-x="630" d="M266 -373v1803l45 45l45 -45v-1803l-45 -47z" />
<glyph unicode="}" horiz-adv-x="1032" d="M215 -160h260v543l213 213l-213 213v530h-260v60h375v-574l229 -229l-229 -229v-588h-375v61z" />
<glyph unicode="~" horiz-adv-x="978" d="M266 535q0 61 43 105t105 44q70 0 118 -57q27 -31 60 -31q31 0 53.5 23.5t22.5 54.5h73q0 -61 -44 -105.5t-105 -44.5q-74 0 -121 60q-20 27 -57 26q-31 0 -53.5 -22.5t-22.5 -52.5h-72z" />
<glyph unicode="&#xa1;" horiz-adv-x="835" d="M258 1104l148 147l147 -147l-147 -148zM301 39l72 780l33 33l32 -33l74 -780l-106 -105z" />
<glyph unicode="&#xa2;" horiz-adv-x="1146" d="M229 561q0 174 124 298t298 124q33 0 47 -2l60 215h96l-66 -233q59 -23 113 -58l-4 -125q0 -6 2 -24.5t2 -32.5v-10h-27q-23 92 -118 127l-162 -574q49 -8 74 -8q174 0 200 145h29v-10q0 -10 -2 -45v-41l6 -94q-115 -76 -250 -76q-43 0 -90 10l-61 -217h-97l70 246 q-111 53 -177.5 156.5t-66.5 228.5zM371 561q0 -172 139 -256l158 557q-121 0 -209 -88t-88 -213z" />
<glyph unicode="&#xa3;" horiz-adv-x="1179" d="M297 -86q0 16 2 52t2 46v103q0 12 -2 47t-2 51v18l27 -12v-14q6 -41 20 -57.5t57 -20.5v444q-43 -2 -57 -18t-20 -57v-17l-27 -10v18q0 18 2 53t2 46v100q0 12 -2 47t-2 51v19l27 -12v-15q6 -41 20 -57.5t57 -18.5v160q0 164 117 270q104 96 236 97q141 0 274 -107v-96 q0 -8 3 -38t3 -52v-16h-33q-12 68 -71 118q-72 61 -176 62q-82 0 -154 -71t-72 -167v-160h164q57 0 75.5 15.5t23.5 60.5v15l28 12v-19q0 -16 -2 -51t-2 -47v-100q0 -10 2 -45t2 -54v-18l-28 10v17q-4 45 -22.5 60t-76.5 15h-164v-444h385q59 0 78 16.5t23 61.5v14l28 12 v-18q0 -16 -3 -51t-3 -47v-103q0 -10 3 -46t3 -52v-16l-28 10v14q-4 45 -22.5 61.5t-78.5 16.5h-489q-57 0 -75.5 -16.5t-24.5 -61.5v-14l-27 -10v16z" />
<glyph unicode="&#xa4;" horiz-adv-x="1232" d="M164 0l586 606q121 125 120 234q0 109 -73.5 184.5t-180.5 75.5q-106 0 -183 -76t-77 -184q0 -43 70 -49h14l13 -29h-19q-16 0 -51 2t-47 2h-103q-4 51 -4 74q0 160 114 273.5t273 113.5q160 0 274 -114t114 -273q0 -86 -33 -152q-35 -76 -131 -174l-375 -387h426 q57 0 76.5 16.5t23.5 61.5v14l29 12v-18q0 -16 -3 -51t-3 -47v-119q-80 4 -123 4h-727z" />
<glyph unicode="&#xa5;" horiz-adv-x="1605" d="M121 1036l14 15q12 12 38 34.5t34 30.5l72 72q29 29 65 72l12 14l13 -29l-11 -10q-27 -35 -26 -55q0 -27 43 -70l422 -420l420 420q43 43 43 72q0 20 -27 53q-4 6 -8 10l10 29l14 -14q25 -27 66 -72l71 -72q25 -20 72 -65l12 -15l-26 -10l-10 10q-35 27 -56 27 q-27 0 -69 -43l-449 -451v-51h266v-98h-266v-98h266v-99h-266v-100q0 -57 16.5 -76.5t61.5 -23.5h14l11 -27h-17q-16 0 -51 2t-47 2h-103q-10 0 -44.5 -2t-53.5 -2h-18l12 27h14q45 4 61.5 23.5t16.5 76.5v100h-264v99h264v98h-264v98h264v51l-450 451q-43 43 -70 43 q-18 0 -53 -27l-10 -10z" />
<glyph unicode="&#xa6;" horiz-adv-x="483" d="M217 385h41v-811h-41v811zM217 555v809h41v-809h-41z" />
<glyph unicode="&#xa7;" horiz-adv-x="911" d="M160 172l125 55l14 -26q-31 -18 -31 -35q0 -29 39 -62q45 -39 111 -38q76 0 125 44t49 107q0 76 -121 139l-131 70q-147 78 -147 209q0 139 137 196q-96 70 -97 181q0 94 70 154.5t164 60.5q164 0 242 -146l-109 -98l-18 29q25 27 24 41q0 29 -41 54.5t-92 25.5 q-137 0 -137 -121q0 -68 102 -121l156 -82q141 -74 141 -217q0 -131 -117 -203q76 -66 76 -174q0 -106 -83 -176t-197 -70q-119 0 -193 84q-51 55 -61 119zM295 635q0 -68 102 -121l121 -63q115 32 115 143q0 76 -121 139l-31 17q-25 6 -49 6q-137 0 -137 -121z" />
<glyph unicode="&#xa8;" horiz-adv-x="630" d="M57 1495l90 90l91 -90l-91 -90zM356 1495l90 90l91 -90l-91 -90z" />
<glyph unicode="&#xa9;" d="M229 598q0 260 184.5 444.5t444.5 184.5q262 0 445.5 -183.5t183.5 -445.5q0 -260 -183.5 -444.5t-445.5 -184.5q-260 0 -444.5 184.5t-184.5 444.5zM313 598q0 -223 161 -384t384 -161q225 0 386 161t161 384t-161 384t-386 161q-223 0 -384 -161t-161 -384zM537 598 q0 150 106.5 255t253.5 105q90 0 188 -61v-66q0 -2 5 -47v-22h-27q-6 45 -31 59q-66 39 -135 39q-109 0 -185.5 -76.5t-76.5 -185.5t76.5 -184.5t185.5 -75.5q68 0 141 45q18 18 25 57h22v-22q0 -10 -2 -29v-20l2 -64q-98 -66 -188 -65q-147 0 -253.5 105.5t-106.5 252.5z " />
<glyph unicode="&#xaa;" horiz-adv-x="0" />
<glyph unicode="&#xab;" horiz-adv-x="1146" d="M246 598l227 229q43 43 43 72q0 20 -27 53l-10 11l13 26l12 -10q12 -12 34.5 -39t30.5 -35l62 -61l-244 -246l244 -244l-62 -61q-8 -8 -30.5 -35t-34.5 -39l-12 -12l-13 26q4 4 10 13q27 33 27 53q0 29 -43 72zM504 598l229 229q43 43 43 70q0 20 -26 55q-6 4 -11 11 l11 26l12 -10q25 -29 67 -74l52 -53q25 -20 73 -66l13 -12l-29 -12q-2 4 -8 12q-37 25 -58 25q-29 0 -69 -41l-158 -160l158 -158q43 -43 69 -43q23 0 58 27q2 6 8 12l29 -14l-13 -10q-37 -31 -73 -68l-52 -51q-8 -8 -31.5 -35t-35.5 -39l-12 -12l-11 26q2 4 11 13 q27 35 26 55q0 27 -43 70z" />
<glyph unicode="&#xac;" horiz-adv-x="0" />
<glyph unicode="&#xad;" horiz-adv-x="1415" d="M295 459v18q0 18 2 53t2 45v101q0 12 -2 47t-2 51v19l29 -11v-16q4 -45 22.5 -60.5t75.5 -15.5h571q57 0 75.5 15.5t25.5 60.5v16l26 11v-19q0 -16 -2 -51t-2 -47v-101q0 -10 2 -44.5t2 -53.5v-18l-26 12v14q-6 45 -24.5 60.5t-76.5 15.5h-571q-57 0 -75.5 -15.5 t-22.5 -60.5v-14z" />
<glyph unicode="&#xae;" d="M229 598q0 260 184.5 444.5t444.5 184.5q262 0 445.5 -183.5t183.5 -445.5q0 -260 -183.5 -444.5t-445.5 -184.5q-260 0 -444.5 184.5t-184.5 444.5zM313 598q0 -223 161 -384t384 -161q225 0 386 161t161 384t-161 384t-386 161q-223 0 -384 -161t-161 -384zM614 950h29 h29q20 -2 26 -2h154q88 0 147.5 -54t59.5 -138q0 -131 -121 -185l236 -233q51 -49 92 -59l12 -19h-29q-8 0 -25.5 2t-27.5 2q-12 0 -82 -4l-297 295h-43v-227q0 -39 31 -41h18l13 -27h-29q-8 0 -27.5 2t-25.5 2h-56q-6 0 -25.5 -2t-29.5 -2h-27l17 27h14q31 2 31 41v555 q0 41 -31 43h-14zM774 643h74q51 0 83 33t32 80q0 104 -115 104h-74v-217z" />
<glyph unicode="&#xaf;" horiz-adv-x="454" d="M29 1061v98h401v-98h-401z" />
<glyph unicode="&#xb0;" horiz-adv-x="688" d="M98 981q0 102 72 174t174 72t174 -72t72 -174q0 -100 -72 -173t-174 -73q-100 0 -173 73t-73 173zM172 981q0 -70 51 -121t121 -51q72 0 122 51t50 121q0 72 -50 122t-122 50t-122 -50t-50 -122z" />
<glyph unicode="&#xb1;" horiz-adv-x="0" />
<glyph unicode="&#xb2;" horiz-adv-x="856" d="M135 504l344 354q66 68 66 121t-38 91t-91 38t-90 -38t-37 -91q0 -16 24 -16h19l14 -25h-31q-8 0 -26 2h-27h-69v39q0 92 65.5 158.5t157.5 66.5q94 0 160.5 -66.5t66.5 -158.5q0 -90 -94 -188l-184 -191h221q39 0 41 31v16l24 12v-26v-29q-2 -18 -2 -26v-76q-57 2 -80 2 h-434z" />
<glyph unicode="&#xb3;" horiz-adv-x="905" d="M236 721q0 12 6 53h65q6 0 27 2h28h29l-18 -24h-15q-27 -4 -26 -31q0 -53 38 -91t93 -38q53 0 91 38t38 91q0 49 -35 84q-43 41 -123 41q-45 0 -102 -15l203 269h-211q-41 0 -43 -31v-16l-25 -17v31q0 10 2 29v24v78q57 -2 82 -2h387l-197 -260q70 -25 114 -82t44 -133 q0 -94 -66.5 -159.5t-158.5 -65.5q-94 0 -160.5 65.5t-66.5 159.5z" />
<glyph unicode="&#xb4;" horiz-adv-x="978" d="M348 987l182 191h175l-267 -191h-90z" />
<glyph unicode="&#xb5;" horiz-adv-x="1763" d="M152 -291l10 27h14q45 4 61.5 23.5t16.5 76.5v1237q0 57 -16.5 76.5t-61.5 24.5h-14l-10 26h16q18 0 53 -2t45 -2h101q12 0 47 2t51 2h18l-12 -26h-14q-45 -4 -60.5 -24t-15.5 -77v-475q0 -207 147.5 -355.5t354.5 -148.5t355 148.5t148 355.5v475q0 57 -16 76.5 t-61 24.5h-15l-12 26h18q18 0 53.5 -2t45.5 -2h100q12 0 47 2t51 2h19l-12 -26h-15q-45 -4 -61.5 -24t-16.5 -77v-475q0 -260 -183 -444.5t-445 -184.5q-311 0 -502 248v-381q0 -57 16.5 -76.5t61.5 -23.5h14l12 -27h-18q-16 0 -51 2t-47 2h-103q-10 0 -45 -2t-53 -2h-16z " />
<glyph unicode="&#xb6;" horiz-adv-x="1163" d="M109 879q0 131 93 224t224 93h365q12 0 46.5 2t51.5 2h16l-10 -26h-14q-45 -4 -61.5 -24t-16.5 -77v-1196q0 -57 16.5 -76.5t61.5 -23.5h14l10 -27h-16q-16 0 -51 2t-47 2h-95v1323h-168v-1323h-92q-10 0 -45 -2t-53 -2h-19l13 27h14q45 4 60.5 23.5t15.5 76.5v684 q-129 0 -221 93.5t-92 224.5z" />
<glyph unicode="&#xb8;" horiz-adv-x="890" d="M152 -258l172 197l151 -31l-233 -166h-90z" />
<glyph unicode="&#xb9;" horiz-adv-x="737" d="M223 510l19 25h14q31 2 31 43v552q0 41 -31 44h-14l-19 24h29h29q20 -2 26 -2h58q6 0 26 2h29h29l-19 -24h-14q-31 -2 -31 -44v-552q0 -41 29 -43h16l19 -25h-29q-10 0 -29 2h-26h-58h-26q-18 -2 -29 -2h-29z" />
<glyph unicode="&#xba;" horiz-adv-x="0" />
<glyph unicode="&#xbb;" horiz-adv-x="1146" d="M180 422l29 14q4 -2 8 -12q35 -27 57 -27q27 0 70 43l158 158l-158 160q-41 41 -70 41q-20 0 -57 -25q-2 -6 -8 -12l-29 12l13 12q29 25 73 66l51 53q23 25 68 74l12 10l11 -26l-11 -11q-27 -35 -26 -55q0 -27 43 -70l229 -229l-229 -227q-43 -43 -43 -70q0 -20 26 -55 q6 -4 11 -13l-11 -26l-12 12q-25 27 -68 74l-51 51q-37 37 -73 68zM516 354l244 244l-244 246l62 61q6 6 28.5 33t36.5 41l12 10l13 -26l-11 -11q-27 -33 -26 -53q0 -29 43 -72l227 -229l-227 -227q-43 -43 -43 -72q0 -20 26 -53q4 -4 11 -13l-13 -26l-12 12q-25 29 -65 74z " />
<glyph unicode="&#xbc;" horiz-adv-x="1636" d="M223 510l19 25h14q31 2 31 43v552q0 41 -31 44h-14l-19 24h29h29q20 -2 26 -2h58q6 0 26 2h29h29l-19 -24h-14q-31 -2 -31 -44v-552q0 -41 29 -43h16l19 -25h-29q-10 0 -29 2h-26h-58h-26q-18 -2 -29 -2h-29zM324 0l729 1196h106l-729 -1196h-106zM811 162l440 583v-487 h60q37 0 43 33v14l24 19v-31q0 -10 -2 -28.5t-2 -24.5v-58q0 -6 2 -25.5t2 -29.5v-29l-24 19v14q-6 31 -43 31h-60v-99q0 -41 31 -43h16l17 -24h-31q-10 0 -27.5 2t-23.5 2h-57q-6 0 -26 -2t-30 -2h-28l18 24h14q31 2 31 43v99h-344zM993 258h162v211z" />
<glyph unicode="&#xbd;" horiz-adv-x="1636" d="M223 510l19 25h14q31 2 31 43v552q0 41 -31 44h-14l-19 24h29h29q20 -2 26 -2h58q6 0 26 2h29h29l-19 -24h-14q-31 -2 -31 -44v-552q0 -41 29 -43h16l19 -25h-29q-10 0 -29 2h-26h-58h-26q-18 -2 -29 -2h-29zM324 0l729 1196h106l-729 -1196h-106zM905 0l344 356 q66 68 66 119q0 53 -38 91t-91 38t-90 -38t-37 -91q0 -14 24 -14h19l14 -25h-31q-8 0 -26 2h-27h-69v37q0 94 65.5 159.5t157.5 65.5q94 0 160.5 -65.5t66.5 -159.5q0 -90 -94 -188l-184 -191h221q39 0 41 31v16l24 15v-29v-29q-2 -18 -2 -24v-78q-57 2 -80 2h-434z" />
<glyph unicode="&#xbe;" horiz-adv-x="1802" d="M236 721q0 12 6 53h65q6 0 27 2h28h29l-18 -24h-15q-27 -4 -26 -31q0 -53 38 -91t93 -38q53 0 91 38t38 91q0 49 -35 84q-43 41 -123 41q-45 0 -102 -15l203 269h-211q-41 0 -43 -31v-16l-25 -17v31q0 10 2 29v24v78q57 -2 82 -2h387l-197 -260q70 -25 114 -82t44 -133 q0 -94 -66.5 -159.5t-158.5 -65.5q-94 0 -160.5 65.5t-66.5 159.5zM537 0l729 1196h106l-729 -1196h-106zM1024 162l440 583v-487h60q37 0 43 33v14l24 19v-31q0 -10 -2 -28.5t-2 -24.5v-58q0 -6 2 -25.5t2 -29.5v-29l-24 19v14q-6 31 -43 31h-60v-99q0 -41 31 -43h16 l17 -24h-31q-10 0 -27.5 2t-23.5 2h-57q-6 0 -26 -2t-30 -2h-28l18 24h14q31 2 31 43v99h-344zM1206 258h162v211z" />
<glyph unicode="&#xbf;" horiz-adv-x="1310" d="M291 356q0 190 164 320l219 172v49l69 72l72 -72v-80l-270 -233q-121 -104 -121 -228q0 -109 73.5 -184.5t180.5 -75.5q109 0 184.5 77t75.5 183q0 43 -70 50h-14l-12 28h18q18 0 53 -2t45 -2h103q4 -51 4 -74q0 -160 -113.5 -273.5t-273.5 -113.5t-273.5 114t-113.5 273 zM629 1137l114 114l115 -114l-115 -115z" />
<glyph unicode="&#xc0;" horiz-adv-x="1536" d="M84 33l22 20l13 -8q29 -8 43 -8q39 0 69 67l535 1158l534 -1158q31 -68 70 -67q14 0 43 8l12 8l23 -20l-16 -8q-35 -12 -93 -37l-90 -43q-29 -16 -88 -47l-16 -9l-2 33q4 2 14 6q45 27 45 58q0 23 -18 65l-47 105h-742l-47 -105q-18 -43 -18 -65q0 -31 45 -58q6 -4 14 -6 l-2 -33l-16 9q-33 18 -88 47l-90 43q-31 10 -93 37zM444 266h643l-321 725zM514 1584h174l184 -191h-92z" />
<glyph unicode="&#xc1;" horiz-adv-x="1536" d="M84 33l22 20l13 -8q29 -8 43 -8q39 0 69 67l535 1158l534 -1158q31 -68 70 -67q14 0 43 8l12 8l23 -20l-16 -8q-35 -12 -93 -37l-90 -43q-29 -16 -88 -47l-16 -9l-2 33q4 2 14 6q45 27 45 58q0 23 -18 65l-47 105h-742l-47 -105q-18 -43 -18 -65q0 -31 45 -58q6 -4 14 -6 l-2 -33l-16 9q-33 18 -88 47l-90 43q-31 10 -93 37zM444 266h643l-321 725zM680 1388l182 191h175l-267 -191h-90z" />
<glyph unicode="&#xc2;" horiz-adv-x="1536" d="M84 33l22 20l13 -8q29 -8 43 -8q39 0 69 67l535 1158l534 -1158q31 -68 70 -67q14 0 43 8l12 8l23 -20l-16 -8q-35 -12 -93 -37l-90 -43q-29 -16 -88 -47l-16 -9l-2 33q4 2 14 6q45 27 45 58q0 23 -18 65l-47 105h-742l-47 -105q-18 -43 -18 -65q0 -31 45 -58q6 -4 14 -6 l-2 -33l-16 9q-33 18 -88 47l-90 43q-31 10 -93 37zM444 266h643l-321 725zM542 1389l183 193h69l182 -193h-90l-127 92l-127 -92h-90z" />
<glyph unicode="&#xc3;" horiz-adv-x="1536" d="M84 33l22 20l13 -8q29 -8 43 -8q39 0 69 67l535 1158l534 -1158q31 -68 70 -67q14 0 43 8l12 8l23 -20l-16 -8q-35 -12 -93 -37l-90 -43q-29 -16 -88 -47l-16 -9l-2 33q4 2 14 6q45 27 45 58q0 23 -18 65l-47 105h-742l-47 -105q-18 -43 -18 -65q0 -31 45 -58q6 -4 14 -6 l-2 -33l-16 9q-33 18 -88 47l-90 43q-31 10 -93 37zM444 266h643l-321 725zM519 1399q0 61 44 105.5t105 44.5q70 0 117 -58q25 -31 59 -30q31 0 54.5 23.5t23.5 54.5h72q0 -61 -44 -105.5t-106 -44.5q-72 0 -119 59q-23 27 -57 27q-31 0 -54.5 -22.5t-23.5 -53.5h-71z" />
<glyph unicode="&#xc4;" horiz-adv-x="1536" d="M84 33l22 20l13 -8q29 -8 43 -8q39 0 69 67l535 1158l534 -1158q31 -68 70 -67q14 0 43 8l12 8l23 -20l-16 -8q-35 -12 -93 -37l-90 -43q-29 -16 -88 -47l-16 -9l-2 33q4 2 14 6q45 27 45 58q0 23 -18 65l-47 105h-742l-47 -105q-18 -43 -18 -65q0 -31 45 -58q6 -4 14 -6 l-2 -33l-16 9q-33 18 -88 47l-90 43q-31 10 -93 37zM444 266h643l-321 725zM526 1481l90 90l91 -90l-91 -90zM825 1481l90 90l91 -90l-91 -90z" />
<glyph unicode="&#xc5;" horiz-adv-x="1536" d="M84 33l22 20l13 -8q29 -8 43 -8q39 0 69 67l535 1158l534 -1158q31 -68 70 -67q14 0 43 8l12 8l23 -20l-16 -8q-35 -12 -93 -37l-90 -43q-29 -16 -88 -47l-16 -9l-2 33q4 2 14 6q45 27 45 58q0 23 -18 65l-47 105h-742l-47 -105q-18 -43 -18 -65q0 -31 45 -58q6 -4 14 -6 l-2 -33l-16 9q-33 18 -88 47l-90 43q-31 10 -93 37zM444 266h643l-321 725zM606 1532q0 66 47 113t111 47q66 0 113 -47t47 -113q0 -63 -47.5 -110t-112.5 -47q-63 0 -110.5 47t-47.5 110zM678 1532q0 -31 26.5 -58.5t59.5 -27.5t60.5 27.5t27.5 58.5q0 35 -26.5 61.5 t-61.5 26.5q-33 0 -59.5 -26.5t-26.5 -61.5z" />
<glyph unicode="&#xc6;" horiz-adv-x="1689" d="M84 33l22 20l13 -8q29 -8 43 -8q39 0 69 67l504 1092h514q57 0 75.5 16.5t23.5 61.5v14l28 10v-16q0 -16 -2 -51t-2 -47v-103q0 -10 2 -45t2 -53v-18l-28 12v14q-4 45 -22.5 61.5t-76.5 16.5h-385v-369h375q57 0 75.5 15.5t24.5 60.5v15l27 12v-19q0 -16 -2 -51t-2 -47 v-100q0 -10 2 -45t2 -54v-18l-27 10v17q-6 45 -24.5 60t-75.5 15h-375v-444h385q57 0 75.5 16.5t23.5 61.5v14l28 12v-18q0 -16 -2 -51t-2 -47v-103q0 -10 2 -46t2 -52v-16l-28 10v14q-4 45 -22.5 61.5t-76.5 16.5h-399l-115 -115v271h-340l-47 -105q-18 -43 -18 -65 q0 -31 45 -58q6 -4 14 -6l-2 -33l-16 9q-33 18 -88 47l-90 43q-31 10 -93 37zM444 266h291v658z" />
<glyph unicode="&#xc7;" horiz-adv-x="1417" d="M229 598q0 260 184.5 444.5t444.5 184.5q197 0 350 -107v-96q0 -8 3 -38t3 -52v-16h-32q-10 66 -64 106q-129 74 -260 74q-205 0 -352.5 -146.5t-147.5 -353.5q0 -205 147.5 -352.5t352.5 -147.5q135 0 275 86q41 45 51 103h24v-17q0 -20 -3 -50t-3 -40l6 -104 q-150 -104 -338 -107l-194 -139h-90l135 154q-213 47 -352.5 219t-139.5 395z" />
<glyph unicode="&#xc8;" horiz-adv-x="1355" d="M297 469v18q0 18 2 53t2 46v100q0 12 -2 47t-2 51v19l27 -12v-15q6 -41 20 -57.5t57 -18.5v496h512q59 0 78 16.5t23 61.5v14l28 10v-16q0 -16 -3 -51t-3 -47v-103q0 -10 3 -45t3 -53v-18l-28 12v14q-4 45 -22.5 61.5t-78.5 16.5h-385v-369h377q57 0 75.5 15.5t23.5 60.5 v15l28 12v-19q0 -16 -2 -51t-2 -47v-100q0 -10 2 -45t2 -54v-18l-28 10v17q-4 45 -22.5 60t-76.5 15h-377v-444h385q59 0 78 16.5t23 61.5v14l28 12v-18q0 -16 -3 -51t-3 -47v-103q0 -10 3 -46t3 -52v-16l-28 10v14q-4 45 -22.5 61.5t-78.5 16.5h-397l-115 -115v686 q-43 -2 -57 -18t-20 -57v-17zM502 1579h174l184 -191h-92z" />
<glyph unicode="&#xc9;" horiz-adv-x="1355" d="M297 469v18q0 18 2 53t2 46v100q0 12 -2 47t-2 51v19l27 -12v-15q6 -41 20 -57.5t57 -18.5v496h512q59 0 78 16.5t23 61.5v14l28 10v-16q0 -16 -3 -51t-3 -47v-103q0 -10 3 -45t3 -53v-18l-28 12v14q-4 45 -22.5 61.5t-78.5 16.5h-385v-369h377q57 0 75.5 15.5t23.5 60.5 v15l28 12v-19q0 -16 -2 -51t-2 -47v-100q0 -10 2 -45t2 -54v-18l-28 10v17q-4 45 -22.5 60t-76.5 15h-377v-444h385q59 0 78 16.5t23 61.5v14l28 12v-18q0 -16 -3 -51t-3 -47v-103q0 -10 3 -46t3 -52v-16l-28 10v14q-4 45 -22.5 61.5t-78.5 16.5h-397l-115 -115v686 q-43 -2 -57 -18t-20 -57v-17zM624 1393l182 191h175l-267 -191h-90z" />
<glyph unicode="&#xca;" horiz-adv-x="1355" d="M297 469v18q0 18 2 53t2 46v100q0 12 -2 47t-2 51v19l27 -12v-15q6 -41 20 -57.5t57 -18.5v496h512q59 0 78 16.5t23 61.5v14l28 10v-16q0 -16 -3 -51t-3 -47v-103q0 -10 3 -45t3 -53v-18l-28 12v14q-4 45 -22.5 61.5t-78.5 16.5h-385v-369h377q57 0 75.5 15.5t23.5 60.5 v15l28 12v-19q0 -16 -2 -51t-2 -47v-100q0 -10 2 -45t2 -54v-18l-28 10v17q-4 45 -22.5 60t-76.5 15h-377v-444h385q59 0 78 16.5t23 61.5v14l28 12v-18q0 -16 -3 -51t-3 -47v-103q0 -10 3 -46t3 -52v-16l-28 10v14q-4 45 -22.5 61.5t-78.5 16.5h-397l-115 -115v686 q-43 -2 -57 -18t-20 -57v-17zM489 1389l183 193h69l182 -193h-90l-127 92l-127 -92h-90z" />
<glyph unicode="&#xcb;" horiz-adv-x="1355" d="M297 469v18q0 18 2 53t2 46v100q0 12 -2 47t-2 51v19l27 -12v-15q6 -41 20 -57.5t57 -18.5v496h512q59 0 78 16.5t23 61.5v14l28 10v-16q0 -16 -3 -51t-3 -47v-103q0 -10 3 -45t3 -53v-18l-28 12v14q-4 45 -22.5 61.5t-78.5 16.5h-385v-369h377q57 0 75.5 15.5t23.5 60.5 v15l28 12v-19q0 -16 -2 -51t-2 -47v-100q0 -10 2 -45t2 -54v-18l-28 10v17q-4 45 -22.5 60t-76.5 15h-377v-444h385q59 0 78 16.5t23 61.5v14l28 12v-18q0 -16 -3 -51t-3 -47v-103q0 -10 3 -46t3 -52v-16l-28 10v14q-4 45 -22.5 61.5t-78.5 16.5h-397l-115 -115v686 q-43 -2 -57 -18t-20 -57v-17zM489 1481l90 90l91 -90l-91 -90zM788 1481l90 90l91 -90l-91 -90z" />
<glyph unicode="&#xcc;" horiz-adv-x="847" d="M160 1579h174l184 -191h-92zM254 -4l12 27h15q45 4 60 23.5t15 76.5v950q0 57 -15 76.5t-60 24.5h-15l-12 26h18q18 0 53 -2t46 -2h108q12 0 47 2t52 2h16l-10 -26h-15q-45 -4 -61 -24t-16 -77v-950q0 -57 16 -76.5t61 -23.5h15l10 -27h-16q-16 0 -51 2t-48 2h-108 q-10 0 -45 -2t-54 -2h-18z" />
<glyph unicode="&#xcd;" horiz-adv-x="847" d="M254 -4l12 27h15q45 4 60 23.5t15 76.5v950q0 57 -15 76.5t-60 24.5h-15l-12 26h18q18 0 53 -2t46 -2h108q12 0 47 2t52 2h16l-10 -26h-15q-45 -4 -61 -24t-16 -77v-950q0 -57 16 -76.5t61 -23.5h15l10 -27h-16q-16 0 -51 2t-48 2h-108q-10 0 -45 -2t-54 -2h-18z M303 1388l182 191h175l-267 -191h-90z" />
<glyph unicode="&#xce;" horiz-adv-x="847" d="M211 1389l183 193h69l182 -193h-90l-127 92l-127 -92h-90zM254 -4l12 27h15q45 4 60 23.5t15 76.5v950q0 57 -15 76.5t-60 24.5h-15l-12 26h18q18 0 53 -2t46 -2h108q12 0 47 2t52 2h16l-10 -26h-15q-45 -4 -61 -24t-16 -77v-950q0 -57 16 -76.5t61 -23.5h15l10 -27h-16 q-16 0 -51 2t-48 2h-108q-10 0 -45 -2t-54 -2h-18z" />
<glyph unicode="&#xcf;" horiz-adv-x="847" d="M172 1481l90 90l91 -90l-91 -90zM254 -4l12 27h15q45 4 60 23.5t15 76.5v950q0 57 -15 76.5t-60 24.5h-15l-12 26h18q18 0 53 -2t46 -2h108q12 0 47 2t52 2h16l-10 -26h-15q-45 -4 -61 -24t-16 -77v-950q0 -57 16 -76.5t61 -23.5h15l10 -27h-16q-16 0 -51 2t-48 2h-108 q-10 0 -45 -2t-54 -2h-18zM471 1481l90 90l91 -90l-91 -90z" />
<glyph unicode="&#xd0;" horiz-adv-x="1527" d="M217 606v115h111v352q0 57 -16.5 76.5t-61.5 24.5h-14l-11 26h17q18 0 53 -2t45 -2h123q25 0 96.5 2t124.5 2q254 0 434 -173t180 -425q0 -256 -178 -430t-436 -174h-119q-74 2 -78 2h-147q-10 0 -45 -2t-53 -2h-17l11 27h14q45 4 61.5 23.5t16.5 76.5v483h-111zM459 115 h231q199 0 339 141t140 340q0 201 -140 343t-339 142h-231v-360h168v-115h-168v-491z" />
<glyph unicode="&#xd1;" horiz-adv-x="1601" d="M225 -4l11 27h14q45 4 61.5 23.5t16.5 76.5v950q0 57 -16.5 76.5t-61.5 24.5h-14l-11 26h17q18 0 53 -2t45 -2h102q12 0 47 2t52 2h18l-12 -26h-15q-45 -4 -61 -24t-16 -77v-16l692 -733v749q0 57 -16.5 76.5t-61.5 24.5h-14l-11 26h17q18 0 53 -2t45 -2h103q12 0 46.5 2 t51.5 2h18l-12 -26h-14q-45 -4 -61.5 -24t-16.5 -77v-950q0 -57 16.5 -76.5t61.5 -23.5h14l12 -27h-18q-16 0 -51 2t-47 2h-103q-10 0 -45 -2t-53 -2h-17l11 27h14q45 4 61.5 23.5t16.5 76.5v12l-692 737v-749q0 -57 16 -76.5t61 -23.5h15l12 -27h-18q-16 0 -51 2t-48 2 h-102q-10 0 -45 -2t-53 -2h-17zM590 1399q0 61 44 105.5t105 44.5q70 0 117 -58q25 -31 59 -30q31 0 54.5 23.5t23.5 54.5h72q0 -61 -44 -105.5t-106 -44.5q-72 0 -119 59q-23 27 -57 27q-31 0 -54.5 -22.5t-23.5 -53.5h-71z" />
<glyph unicode="&#xd2;" d="M229 598q0 260 184.5 444.5t444.5 184.5q262 0 445.5 -183.5t183.5 -445.5q0 -260 -183.5 -444.5t-445.5 -184.5q-260 0 -444.5 184.5t-184.5 444.5zM358 543q20 -174 145.5 -299.5t299.5 -145.5v445h-445zM358 653h445v445q-174 -20 -299 -144.5t-146 -300.5zM586 1579 h174l184 -191h-92zM913 98q174 20 299.5 145.5t145.5 299.5h-445v-445zM913 653h445q-20 176 -144 300t-301 145v-445z" />
<glyph unicode="&#xd3;" d="M229 598q0 260 184.5 444.5t444.5 184.5q262 0 445.5 -183.5t183.5 -445.5q0 -260 -183.5 -444.5t-445.5 -184.5q-260 0 -444.5 184.5t-184.5 444.5zM358 543q20 -174 145.5 -299.5t299.5 -145.5v445h-445zM358 653h445v445q-174 -20 -299 -144.5t-146 -300.5zM764 1388 l182 191h175l-267 -191h-90zM913 98q174 20 299.5 145.5t145.5 299.5h-445v-445zM913 653h445q-20 176 -144 300t-301 145v-445z" />
<glyph unicode="&#xd4;" d="M229 598q0 260 184.5 444.5t444.5 184.5q262 0 445.5 -183.5t183.5 -445.5q0 -260 -183.5 -444.5t-445.5 -184.5q-260 0 -444.5 184.5t-184.5 444.5zM358 543q20 -174 145.5 -299.5t299.5 -145.5v445h-445zM358 653h445v445q-174 -20 -299 -144.5t-146 -300.5zM631 1389 l183 193h69l182 -193h-90l-127 92l-127 -92h-90zM913 98q174 20 299.5 145.5t145.5 299.5h-445v-445zM913 653h445q-20 176 -144 300t-301 145v-445z" />
<glyph unicode="&#xd5;" d="M229 598q0 260 184.5 444.5t444.5 184.5q262 0 445.5 -183.5t183.5 -445.5q0 -260 -183.5 -444.5t-445.5 -184.5q-260 0 -444.5 184.5t-184.5 444.5zM358 543q20 -174 145.5 -299.5t299.5 -145.5v445h-445zM358 653h445v445q-174 -20 -299 -144.5t-146 -300.5zM607 1399 q0 61 44 105.5t105 44.5q70 0 117 -58q25 -31 59 -30q31 0 54.5 23.5t23.5 54.5h72q0 -61 -44 -105.5t-106 -44.5q-72 0 -119 59q-23 27 -57 27q-31 0 -54.5 -22.5t-23.5 -53.5h-71zM913 98q174 20 299.5 145.5t145.5 299.5h-445v-445zM913 653h445q-20 176 -144 300 t-301 145v-445z" />
<glyph unicode="&#xd6;" d="M229 598q0 260 184.5 444.5t444.5 184.5q262 0 445.5 -183.5t183.5 -445.5q0 -260 -183.5 -444.5t-445.5 -184.5q-260 0 -444.5 184.5t-184.5 444.5zM358 543q20 -174 145.5 -299.5t299.5 -145.5v445h-445zM358 653h445v445q-174 -20 -299 -144.5t-146 -300.5zM612 1481 l90 90l91 -90l-91 -90zM911 1481l90 90l91 -90l-91 -90zM913 98q174 20 299.5 145.5t145.5 299.5h-445v-445zM913 653h445q-20 176 -144 300t-301 145v-445z" />
<glyph unicode="&#xd7;" horiz-adv-x="1224" d="M229 467l29 12q4 -2 8 -10q35 -27 56 -27q29 0 71 43l142 142l-142 141q-43 43 -69 43q-23 0 -58 -27q-2 -4 -8 -10l-29 10l13 15q29 25 73 65l60 60q8 8 31.5 34.5t35.5 38.5l13 13l10 -29l-10 -10q-27 -33 -27 -53q0 -27 43 -70l141 -143l142 143q43 43 43 70 q0 23 -27 53q-4 6 -10 10l12 29l12 -13q25 -29 66 -73l61 -60q25 -20 72 -65l12 -15l-26 -10l-11 10q-33 27 -55 27q-27 0 -69 -43l-142 -141l142 -142q43 -43 71 -43q20 0 53 27l11 10l26 -12l-12 -12q-27 -25 -72 -66l-61 -59q-14 -12 -66 -74l-12 -14l-12 28q4 4 10 13 q27 33 27 53q0 27 -43 70l-142 141l-141 -141q-43 -43 -43 -70q0 -20 27 -53q6 -6 10 -13l-10 -28l-13 14q-25 29 -67 74l-60 59q-25 20 -73 66z" />
<glyph unicode="&#xd8;" d="M229 598q0 260 184.5 444.5t444.5 184.5q229 0 404 -148l137 138l78 -82l-136 -134q146 -178 146 -403q0 -260 -183.5 -444.5t-445.5 -184.5q-227 0 -403 146l-123 -123l-80 78l125 123q-147 176 -148 405zM356 598q0 -174 109 -315l706 706q-135 113 -313 113 q-207 0 -354.5 -148.5t-147.5 -355.5zM545 205q137 -111 313 -111q207 0 355.5 148.5t148.5 355.5q0 176 -111 313z" />
<glyph unicode="&#xd9;" horiz-adv-x="1763" d="M152 1200h16q18 0 53 -2t45 -2h101q12 0 47 2t51 2h18l-12 -26h-14q-45 -4 -60.5 -24t-15.5 -77v-475q0 -207 147.5 -355.5t354.5 -148.5t355 148.5t148 355.5v475q0 57 -16 76.5t-61 24.5h-15l-12 26h18q18 0 53.5 -2t45.5 -2h100q12 0 47 2t51 2h19l-12 -26h-15 q-45 -4 -61.5 -24t-16.5 -77v-475q0 -260 -183 -444.5t-445 -184.5q-260 0 -444.5 184.5t-184.5 444.5v475q0 57 -16.5 76.5t-61.5 24.5h-14zM606 1579h174l184 -191h-92z" />
<glyph unicode="&#xda;" horiz-adv-x="1763" d="M152 1200h16q18 0 53 -2t45 -2h101q12 0 47 2t51 2h18l-12 -26h-14q-45 -4 -60.5 -24t-15.5 -77v-475q0 -207 147.5 -355.5t354.5 -148.5t355 148.5t148 355.5v475q0 57 -16 76.5t-61 24.5h-15l-12 26h18q18 0 53.5 -2t45.5 -2h100q12 0 47 2t51 2h19l-12 -26h-15 q-45 -4 -61.5 -24t-16.5 -77v-475q0 -260 -183 -444.5t-445 -184.5q-260 0 -444.5 184.5t-184.5 444.5v475q0 57 -16.5 76.5t-61.5 24.5h-14zM794 1388l182 191h175l-267 -191h-90z" />
<glyph unicode="&#xdb;" horiz-adv-x="1763" d="M152 1200h16q18 0 53 -2t45 -2h101q12 0 47 2t51 2h18l-12 -26h-14q-45 -4 -60.5 -24t-15.5 -77v-475q0 -207 147.5 -355.5t354.5 -148.5t355 148.5t148 355.5v475q0 57 -16 76.5t-61 24.5h-15l-12 26h18q18 0 53.5 -2t45.5 -2h100q12 0 47 2t51 2h19l-12 -26h-15 q-45 -4 -61.5 -24t-16.5 -77v-475q0 -260 -183 -444.5t-445 -184.5q-260 0 -444.5 184.5t-184.5 444.5v475q0 57 -16.5 76.5t-61.5 24.5h-14zM688 1389l183 193h69l182 -193h-90l-127 92l-127 -92h-90z" />
<glyph unicode="&#xdc;" horiz-adv-x="1763" d="M152 1200h16q18 0 53 -2t45 -2h101q12 0 47 2t51 2h18l-12 -26h-14q-45 -4 -60.5 -24t-15.5 -77v-475q0 -207 147.5 -355.5t354.5 -148.5t355 148.5t148 355.5v475q0 57 -16 76.5t-61 24.5h-15l-12 26h18q18 0 53.5 -2t45.5 -2h100q12 0 47 2t51 2h19l-12 -26h-15 q-45 -4 -61.5 -24t-16.5 -77v-475q0 -260 -183 -444.5t-445 -184.5q-260 0 -444.5 184.5t-184.5 444.5v475q0 57 -16.5 76.5t-61.5 24.5h-14zM702 1481l90 90l91 -90l-91 -90zM1001 1481l90 90l91 -90l-91 -90z" />
<glyph unicode="&#xdd;" horiz-adv-x="1605" d="M121 1036l14 15q12 12 38 34.5t34 30.5l72 72q29 29 65 72l12 14l13 -29l-11 -10q-27 -35 -26 -55q0 -27 43 -70l422 -420l420 420q43 43 43 72q0 20 -27 53q-4 6 -8 10l10 29l14 -14q25 -27 66 -72l71 -72q25 -20 72 -65l12 -15l-26 -10l-10 10q-35 27 -56 27 q-27 0 -69 -43l-449 -451v-446q0 -57 16.5 -76.5t61.5 -23.5h14l11 -27h-17q-16 0 -51 2t-47 2h-103q-10 0 -44.5 -2t-53.5 -2h-18l12 27h14q45 4 61.5 23.5t16.5 76.5v446l-450 451q-43 43 -70 43q-18 0 -53 -27l-10 -10zM745 1390l182 191h175l-267 -191h-90z" />
<glyph unicode="&#xde;" horiz-adv-x="1146" d="M225 -4l11 27h14q45 4 61.5 23.5t16.5 76.5v950q0 57 -16.5 76.5t-61.5 24.5h-14l-11 26h17q18 0 53 -2t45 -2h102q12 0 47 2t52 2h18l-12 -26h-15q-45 -4 -61 -24t-16 -77v-16h166q156 0 263 -102.5t107 -254.5q0 -154 -108.5 -262t-261.5 -108h-166v-207 q0 -57 16 -76.5t61 -23.5h15l12 -27h-18q-16 0 -51 2t-48 2h-102q-10 0 -45 -2t-53 -2h-17zM455 446h157q109 0 181.5 74t72.5 180q0 104 -72.5 172t-181.5 68h-157v-494z" />
<glyph unicode="&#xdf;" horiz-adv-x="1339" d="M225 -4l11 27h14q45 4 61.5 23.5t16.5 76.5v737q0 147 106.5 257t253.5 110q133 0 227 -68q104 -74 105 -192q0 -90 -55 -146q-12 -12 -103 -69q-55 -37 -55 -80q0 -66 92 -119q156 -94 168 -104q92 -76 92 -199q0 -117 -97 -199t-231 -82q-127 0 -213 88q-70 72 -77 154 q33 10 143 59l8 -18q-33 -25 -33 -47q0 -43 53.5 -79t127.5 -36q80 0 135 52.5t55 115.5q0 74 -92 129q-84 51 -170 102q-92 72 -92 183q0 82 55 135q51 35 105.5 71.5t54.5 88.5q0 72 -66 112q-57 35 -137 35q-102 0 -167.5 -76.5t-65.5 -177.5v-737q0 -57 16 -76.5 t61 -23.5h15l12 -27h-18q-16 0 -51 2t-48 2h-102q-10 0 -45 -2t-53 -2h-17z" />
<glyph unicode="&#xe0;" horiz-adv-x="1536" d="M84 33l22 20l13 -8q29 -8 43 -8q39 0 69 67l535 1158l534 -1158q31 -68 70 -67q14 0 43 8l12 8l23 -20l-16 -8q-35 -12 -93 -37l-90 -43q-29 -16 -88 -47l-16 -9l-2 33q4 2 14 6q45 27 45 58q0 23 -18 65l-47 105h-742l-47 -105q-18 -43 -18 -65q0 -31 45 -58q6 -4 14 -6 l-2 -33l-16 9q-33 18 -88 47l-90 43q-31 10 -93 37zM444 266h643l-321 725zM518 1581h174l184 -191h-92z" />
<glyph unicode="&#xe1;" horiz-adv-x="1536" d="M84 33l22 20l13 -8q29 -8 43 -8q39 0 69 67l535 1158l534 -1158q31 -68 70 -67q14 0 43 8l12 8l23 -20l-16 -8q-35 -12 -93 -37l-90 -43q-29 -16 -88 -47l-16 -9l-2 33q4 2 14 6q45 27 45 58q0 23 -18 65l-47 105h-742l-47 -105q-18 -43 -18 -65q0 -31 45 -58q6 -4 14 -6 l-2 -33l-16 9q-33 18 -88 47l-90 43q-31 10 -93 37zM444 266h643l-321 725zM696 1390l182 191h175l-267 -191h-90z" />
<glyph unicode="&#xe2;" horiz-adv-x="1536" d="M84 33l22 20l13 -8q29 -8 43 -8q39 0 69 67l535 1158l534 -1158q31 -68 70 -67q14 0 43 8l12 8l23 -20l-16 -8q-35 -12 -93 -37l-90 -43q-29 -16 -88 -47l-16 -9l-2 33q4 2 14 6q45 27 45 58q0 23 -18 65l-47 105h-742l-47 -105q-18 -43 -18 -65q0 -31 45 -58q6 -4 14 -6 l-2 -33l-16 9q-33 18 -88 47l-90 43q-31 10 -93 37zM444 266h643l-321 725zM545 1393l183 193h69l182 -193h-90l-127 92l-127 -92h-90z" />
<glyph unicode="&#xe3;" horiz-adv-x="1536" d="M84 33l22 20l13 -8q29 -8 43 -8q39 0 69 67l535 1158l534 -1158q31 -68 70 -67q14 0 43 8l12 8l23 -20l-16 -8q-35 -12 -93 -37l-90 -43q-29 -16 -88 -47l-16 -9l-2 33q4 2 14 6q45 27 45 58q0 23 -18 65l-47 105h-742l-47 -105q-18 -43 -18 -65q0 -31 45 -58q6 -4 14 -6 l-2 -33l-16 9q-33 18 -88 47l-90 43q-31 10 -93 37zM444 266h643l-321 725zM529 1403q0 61 44 105.5t105 44.5q70 0 117 -58q25 -31 59 -30q31 0 54.5 23.5t23.5 54.5h72q0 -61 -44 -105.5t-106 -44.5q-72 0 -119 59q-23 27 -57 27q-31 0 -54.5 -22.5t-23.5 -53.5h-71z" />
<glyph unicode="&#xe4;" horiz-adv-x="1536" d="M84 33l22 20l13 -8q29 -8 43 -8q39 0 69 67l535 1158l534 -1158q31 -68 70 -67q14 0 43 8l12 8l23 -20l-16 -8q-35 -12 -93 -37l-90 -43q-29 -16 -88 -47l-16 -9l-2 33q4 2 14 6q45 27 45 58q0 23 -18 65l-47 105h-742l-47 -105q-18 -43 -18 -65q0 -31 45 -58q6 -4 14 -6 l-2 -33l-16 9q-33 18 -88 47l-90 43q-31 10 -93 37zM444 266h643l-321 725zM500 1483l96 90l96 -90l-96 -90zM819 1485l96 90l99 -90l-99 -90z" />
<glyph unicode="&#xe5;" horiz-adv-x="1536" d="M84 33l22 20l13 -8q29 -8 43 -8q39 0 69 67l535 1158l534 -1158q31 -68 70 -67q14 0 43 8l12 8l23 -20l-16 -8q-35 -12 -93 -37l-90 -43q-29 -16 -88 -47l-16 -9l-2 33q4 2 14 6q45 27 45 58q0 23 -18 65l-47 105h-742l-47 -105q-18 -43 -18 -65q0 -31 45 -58q6 -4 14 -6 l-2 -33l-16 9q-33 18 -88 47l-90 43q-31 10 -93 37zM444 266h643l-321 725zM598 1532q0 66 47 113t111 47q66 0 113 -47t47 -113q0 -63 -47.5 -110t-112.5 -47q-63 0 -110.5 47t-47.5 110zM670 1532q0 -31 26.5 -58.5t59.5 -27.5t60.5 27.5t27.5 58.5q0 35 -26.5 61.5 t-61.5 26.5q-33 0 -59.5 -26.5t-26.5 -61.5z" />
<glyph unicode="&#xe6;" horiz-adv-x="1689" d="M84 33l22 20l13 -8q29 -8 43 -8q39 0 69 67l504 1092h514q57 0 75.5 16.5t23.5 61.5v14l28 10v-16q0 -16 -2 -51t-2 -47v-103q0 -10 2 -45t2 -53v-18l-28 12v14q-4 45 -22.5 61.5t-76.5 16.5h-385v-369h375q57 0 75.5 15.5t24.5 60.5v15l27 12v-19q0 -16 -2 -51t-2 -47 v-100q0 -10 2 -45t2 -54v-18l-27 10v17q-6 45 -24.5 60t-75.5 15h-375v-444h385q57 0 75.5 16.5t23.5 61.5v14l28 12v-18q0 -16 -2 -51t-2 -47v-103q0 -10 2 -46t2 -52v-16l-28 10v14q-4 45 -22.5 61.5t-76.5 16.5h-399l-115 -115v271h-340l-47 -105q-18 -43 -18 -65 q0 -31 45 -58q6 -4 14 -6l-2 -33l-16 9q-33 18 -88 47l-90 43q-31 10 -93 37zM444 266h291v658z" />
<glyph unicode="&#xe7;" horiz-adv-x="1417" d="M229 598q0 260 184.5 444.5t444.5 184.5q197 0 350 -107v-96q0 -8 3 -38t3 -52v-16h-32q-10 66 -64 106q-129 74 -260 74q-205 0 -352.5 -146.5t-147.5 -353.5q0 -205 147.5 -352.5t352.5 -147.5q135 0 275 86q41 45 51 103h24v-17q0 -20 -3 -50t-3 -40l6 -104 q-150 -104 -338 -107l-194 -139h-90l135 154q-213 47 -352.5 219t-139.5 395z" />
<glyph unicode="&#xe8;" horiz-adv-x="1355" d="M297 469v18q0 18 2 53t2 46v100q0 12 -2 47t-2 51v19l27 -12v-15q6 -41 20 -57.5t57 -18.5v496h512q59 0 78 16.5t23 61.5v14l28 10v-16q0 -16 -3 -51t-3 -47v-103q0 -10 3 -45t3 -53v-18l-28 12v14q-4 45 -22.5 61.5t-78.5 16.5h-385v-369h377q57 0 75.5 15.5t23.5 60.5 v15l28 12v-19q0 -16 -2 -51t-2 -47v-100q0 -10 2 -45t2 -54v-18l-28 10v17q-4 45 -22.5 60t-76.5 15h-377v-444h385q59 0 78 16.5t23 61.5v14l28 12v-18q0 -16 -3 -51t-3 -47v-103q0 -10 3 -46t3 -52v-16l-28 10v14q-4 45 -22.5 61.5t-78.5 16.5h-397l-115 -115v686 q-43 -2 -57 -18t-20 -57v-17zM498 1581h174l184 -191h-92z" />
<glyph unicode="&#xe9;" horiz-adv-x="1355" d="M297 469v18q0 18 2 53t2 46v100q0 12 -2 47t-2 51v19l27 -12v-15q6 -41 20 -57.5t57 -18.5v496h512q59 0 78 16.5t23 61.5v14l28 10v-16q0 -16 -3 -51t-3 -47v-103q0 -10 3 -45t3 -53v-18l-28 12v14q-4 45 -22.5 61.5t-78.5 16.5h-385v-369h377q57 0 75.5 15.5t23.5 60.5 v15l28 12v-19q0 -16 -2 -51t-2 -47v-100q0 -10 2 -45t2 -54v-18l-28 10v17q-4 45 -22.5 60t-76.5 15h-377v-444h385q59 0 78 16.5t23 61.5v14l28 12v-18q0 -16 -3 -51t-3 -47v-103q0 -10 3 -46t3 -52v-16l-28 10v14q-4 45 -22.5 61.5t-78.5 16.5h-397l-115 -115v686 q-43 -2 -57 -18t-20 -57v-17zM622 1390l182 191h175l-267 -191h-90z" />
<glyph unicode="&#xea;" horiz-adv-x="1355" d="M297 469v18q0 18 2 53t2 46v100q0 12 -2 47t-2 51v19l27 -12v-15q6 -41 20 -57.5t57 -18.5v496h512q59 0 78 16.5t23 61.5v14l28 10v-16q0 -16 -3 -51t-3 -47v-103q0 -10 3 -45t3 -53v-18l-28 12v14q-4 45 -22.5 61.5t-78.5 16.5h-385v-369h377q57 0 75.5 15.5t23.5 60.5 v15l28 12v-19q0 -16 -2 -51t-2 -47v-100q0 -10 2 -45t2 -54v-18l-28 10v17q-4 45 -22.5 60t-76.5 15h-377v-444h385q59 0 78 16.5t23 61.5v14l28 12v-18q0 -16 -3 -51t-3 -47v-103q0 -10 3 -46t3 -52v-16l-28 10v14q-4 45 -22.5 61.5t-78.5 16.5h-397l-115 -115v686 q-43 -2 -57 -18t-20 -57v-17zM499 1393l183 193h69l182 -193h-90l-127 92l-127 -92h-90z" />
<glyph unicode="&#xeb;" horiz-adv-x="1355" d="M297 469v18q0 18 2 53t2 46v100q0 12 -2 47t-2 51v19l27 -12v-15q6 -41 20 -57.5t57 -18.5v496h512q59 0 78 16.5t23 61.5v14l28 10v-16q0 -16 -3 -51t-3 -47v-103q0 -10 3 -45t3 -53v-18l-28 12v14q-4 45 -22.5 61.5t-78.5 16.5h-385v-369h377q57 0 75.5 15.5t23.5 60.5 v15l28 12v-19q0 -16 -2 -51t-2 -47v-100q0 -10 2 -45t2 -54v-18l-28 10v17q-4 45 -22.5 60t-76.5 15h-377v-444h385q59 0 78 16.5t23 61.5v14l28 12v-18q0 -16 -3 -51t-3 -47v-103q0 -10 3 -46t3 -52v-16l-28 10v14q-4 45 -22.5 61.5t-78.5 16.5h-397l-115 -115v686 q-43 -2 -57 -18t-20 -57v-17zM479 1483l90 90l91 -90l-91 -90zM778 1483l90 90l91 -90l-91 -90z" />
<glyph unicode="&#xec;" horiz-adv-x="847" d="M174 1581h174l184 -191h-92zM254 -4l12 27h15q45 4 60 23.5t15 76.5v950q0 57 -15 76.5t-60 24.5h-15l-12 26h18q18 0 53 -2t46 -2h108q12 0 47 2t52 2h16l-10 -26h-15q-45 -4 -61 -24t-16 -77v-950q0 -57 16 -76.5t61 -23.5h15l10 -27h-16q-16 0 -51 2t-48 2h-108 q-10 0 -45 -2t-54 -2h-18z" />
<glyph unicode="&#xed;" horiz-adv-x="847" d="M254 -4l12 27h15q45 4 60 23.5t15 76.5v950q0 57 -15 76.5t-60 24.5h-15l-12 26h18q18 0 53 -2t46 -2h108q12 0 47 2t52 2h16l-10 -26h-15q-45 -4 -61 -24t-16 -77v-950q0 -57 16 -76.5t61 -23.5h15l10 -27h-16q-16 0 -51 2t-48 2h-108q-10 0 -45 -2t-54 -2h-18z M330 1390l182 191h175l-267 -191h-90z" />
<glyph unicode="&#xee;" horiz-adv-x="847" d="M211 1393l183 193h69l182 -193h-90l-127 92l-127 -92h-90zM254 -4l12 27h15q45 4 60 23.5t15 76.5v950q0 57 -15 76.5t-60 24.5h-15l-12 26h18q18 0 53 -2t46 -2h108q12 0 47 2t52 2h16l-10 -26h-15q-45 -4 -61 -24t-16 -77v-950q0 -57 16 -76.5t61 -23.5h15l10 -27h-16 q-16 0 -51 2t-48 2h-108q-10 0 -45 -2t-54 -2h-18z" />
<glyph unicode="&#xef;" horiz-adv-x="847" d="M172 1483l90 90l90 -90l-90 -90zM254 -4l12 27h15q45 4 60 23.5t15 76.5v950q0 57 -15 76.5t-60 24.5h-15l-12 26h18q18 0 53 -2t46 -2h108q12 0 47 2t52 2h16l-10 -26h-15q-45 -4 -61 -24t-16 -77v-950q0 -57 16 -76.5t61 -23.5h15l10 -27h-16q-16 0 -51 2t-48 2h-108 q-10 0 -45 -2t-54 -2h-18zM471 1485l90 90l90 -90l-90 -90z" />
<glyph unicode="&#xf0;" horiz-adv-x="1527" d="M217 606v115h111v352q0 57 -16.5 76.5t-61.5 24.5h-14l-11 26h17q18 0 53 -2t45 -2h123q25 0 96.5 2t124.5 2q254 0 434 -173t180 -425q0 -256 -178 -430t-436 -174h-119q-74 2 -78 2h-147q-10 0 -45 -2t-53 -2h-17l11 27h14q45 4 61.5 23.5t16.5 76.5v483h-111zM459 115 h231q199 0 339 141t140 340q0 201 -140 343t-339 142h-231v-360h168v-115h-168v-491z" />
<glyph unicode="&#xf1;" horiz-adv-x="1601" d="M225 -4l11 27h14q45 4 61.5 23.5t16.5 76.5v950q0 57 -16.5 76.5t-61.5 24.5h-14l-11 26h17q18 0 53 -2t45 -2h102q12 0 47 2t52 2h18l-12 -26h-15q-45 -4 -61 -24t-16 -77v-16l692 -733v749q0 57 -16.5 76.5t-61.5 24.5h-14l-11 26h17q18 0 53 -2t45 -2h103q12 0 46.5 2 t51.5 2h18l-12 -26h-14q-45 -4 -61.5 -24t-16.5 -77v-950q0 -57 16.5 -76.5t61.5 -23.5h14l12 -27h-18q-16 0 -51 2t-47 2h-103q-10 0 -45 -2t-53 -2h-17l11 27h14q45 4 61.5 23.5t16.5 76.5v12l-692 737v-749q0 -57 16 -76.5t61 -23.5h15l12 -27h-18q-16 0 -51 2t-48 2 h-102q-10 0 -45 -2t-53 -2h-17zM582 1403q0 61 44 105.5t105 44.5q70 0 117 -58q25 -31 59 -30q31 0 54.5 23.5t23.5 54.5h72q0 -61 -44 -105.5t-106 -44.5q-72 0 -119 59q-23 27 -57 27q-31 0 -54.5 -22.5t-23.5 -53.5h-71z" />
<glyph unicode="&#xf2;" d="M229 598q0 260 184.5 444.5t444.5 184.5q262 0 445.5 -183.5t183.5 -445.5q0 -260 -183.5 -444.5t-445.5 -184.5q-260 0 -444.5 184.5t-184.5 444.5zM358 543q20 -174 145.5 -299.5t299.5 -145.5v445h-445zM358 653h445v445q-174 -20 -299 -144.5t-146 -300.5zM610 1581 h174l184 -191h-92zM913 98q174 20 299.5 145.5t145.5 299.5h-445v-445zM913 653h445q-20 176 -144 300t-301 145v-445z" />
<glyph unicode="&#xf3;" d="M229 598q0 260 184.5 444.5t444.5 184.5q262 0 445.5 -183.5t183.5 -445.5q0 -260 -183.5 -444.5t-445.5 -184.5q-260 0 -444.5 184.5t-184.5 444.5zM358 543q20 -174 145.5 -299.5t299.5 -145.5v445h-445zM358 653h445v445q-174 -20 -299 -144.5t-146 -300.5zM727 1390 l182 191h175l-267 -191h-90zM913 98q174 20 299.5 145.5t145.5 299.5h-445v-445zM913 653h445q-20 176 -144 300t-301 145v-445z" />
<glyph unicode="&#xf4;" d="M229 598q0 260 184.5 444.5t444.5 184.5q262 0 445.5 -183.5t183.5 -445.5q0 -260 -183.5 -444.5t-445.5 -184.5q-260 0 -444.5 184.5t-184.5 444.5zM358 543q20 -174 145.5 -299.5t299.5 -145.5v445h-445zM358 653h445v445q-174 -20 -299 -144.5t-146 -300.5zM639 1393 l183 193h69l182 -193h-90l-127 92l-127 -92h-90zM913 98q174 20 299.5 145.5t145.5 299.5h-445v-445zM913 653h445q-20 176 -144 300t-301 145v-445z" />
<glyph unicode="&#xf5;" d="M229 598q0 260 184.5 444.5t444.5 184.5q262 0 445.5 -183.5t183.5 -445.5q0 -260 -183.5 -444.5t-445.5 -184.5q-260 0 -444.5 184.5t-184.5 444.5zM358 543q20 -174 145.5 -299.5t299.5 -145.5v445h-445zM358 653h445v445q-174 -20 -299 -144.5t-146 -300.5zM605 1403 q0 61 44 105.5t105 44.5q70 0 117 -58q25 -31 59 -30q31 0 54.5 23.5t23.5 54.5h72q0 -61 -44 -105.5t-106 -44.5q-72 0 -119 59q-23 27 -57 27q-31 0 -54.5 -22.5t-23.5 -53.5h-71zM913 98q174 20 299.5 145.5t145.5 299.5h-445v-445zM913 653h445q-20 176 -144 300 t-301 145v-445z" />
<glyph unicode="&#xf6;" d="M229 598q0 260 184.5 444.5t444.5 184.5q262 0 445.5 -183.5t183.5 -445.5q0 -260 -183.5 -444.5t-445.5 -184.5q-260 0 -444.5 184.5t-184.5 444.5zM358 543q20 -174 145.5 -299.5t299.5 -145.5v445h-445zM358 653h445v445q-174 -20 -299 -144.5t-146 -300.5zM594 1483 l90 90l91 -90l-91 -90zM893 1483l90 90l91 -90l-91 -90zM913 98q174 20 299.5 145.5t145.5 299.5h-445v-445zM913 653h445q-20 176 -144 300t-301 145v-445z" />
<glyph unicode="&#xf7;" horiz-adv-x="0" />
<glyph unicode="&#xf8;" d="M229 598q0 260 184.5 444.5t444.5 184.5q229 0 404 -148l137 138l78 -82l-136 -134q146 -178 146 -403q0 -260 -183.5 -444.5t-445.5 -184.5q-227 0 -403 146l-123 -123l-80 78l125 123q-147 176 -148 405zM356 598q0 -174 109 -315l706 706q-135 113 -313 113 q-207 0 -354.5 -148.5t-147.5 -355.5zM545 205q137 -111 313 -111q207 0 355.5 148.5t148.5 355.5q0 176 -111 313z" />
<glyph unicode="&#xf9;" horiz-adv-x="1763" d="M152 1200h16q18 0 53 -2t45 -2h101q12 0 47 2t51 2h18l-12 -26h-14q-45 -4 -60.5 -24t-15.5 -77v-475q0 -207 147.5 -355.5t354.5 -148.5t355 148.5t148 355.5v475q0 57 -16 76.5t-61 24.5h-15l-12 26h18q18 0 53.5 -2t45.5 -2h100q12 0 47 2t51 2h19l-12 -26h-15 q-45 -4 -61.5 -24t-16.5 -77v-475q0 -260 -183 -444.5t-445 -184.5q-260 0 -444.5 184.5t-184.5 444.5v475q0 57 -16.5 76.5t-61.5 24.5h-14zM658 1581h174l184 -191h-92z" />
<glyph unicode="&#xfa;" horiz-adv-x="1763" d="M152 1200h16q18 0 53 -2t45 -2h101q12 0 47 2t51 2h18l-12 -26h-14q-45 -4 -60.5 -24t-15.5 -77v-475q0 -207 147.5 -355.5t354.5 -148.5t355 148.5t148 355.5v475q0 57 -16 76.5t-61 24.5h-15l-12 26h18q18 0 53.5 -2t45.5 -2h100q12 0 47 2t51 2h19l-12 -26h-15 q-45 -4 -61.5 -24t-16.5 -77v-475q0 -260 -183 -444.5t-445 -184.5q-260 0 -444.5 184.5t-184.5 444.5v475q0 57 -16.5 76.5t-61.5 24.5h-14zM792 1390l182 191h175l-267 -191h-90z" />
<glyph unicode="&#xfb;" horiz-adv-x="1763" d="M152 1200h16q18 0 53 -2t45 -2h101q12 0 47 2t51 2h18l-12 -26h-14q-45 -4 -60.5 -24t-15.5 -77v-475q0 -207 147.5 -355.5t354.5 -148.5t355 148.5t148 355.5v475q0 57 -16 76.5t-61 24.5h-15l-12 26h18q18 0 53.5 -2t45.5 -2h100q12 0 47 2t51 2h19l-12 -26h-15 q-45 -4 -61.5 -24t-16.5 -77v-475q0 -260 -183 -444.5t-445 -184.5q-260 0 -444.5 184.5t-184.5 444.5v475q0 57 -16.5 76.5t-61.5 24.5h-14zM688 1393l183 193h69l182 -193h-90l-127 92l-127 -92h-90z" />
<glyph unicode="&#xfc;" horiz-adv-x="1763" d="M152 1200h16q18 0 53 -2t45 -2h101q12 0 47 2t51 2h18l-12 -26h-14q-45 -4 -60.5 -24t-15.5 -77v-475q0 -207 147.5 -355.5t354.5 -148.5t355 148.5t148 355.5v475q0 57 -16 76.5t-61 24.5h-15l-12 26h18q18 0 53.5 -2t45.5 -2h100q12 0 47 2t51 2h19l-12 -26h-15 q-45 -4 -61.5 -24t-16.5 -77v-475q0 -260 -183 -444.5t-445 -184.5q-260 0 -444.5 184.5t-184.5 444.5v475q0 57 -16.5 76.5t-61.5 24.5h-14zM688 1483l90 90l91 -90l-91 -90zM987 1483l90 90l91 -90l-91 -90z" />
<glyph unicode="&#xfd;" horiz-adv-x="1605" d="M121 1036l14 15q12 12 38 34.5t34 30.5l72 72q29 29 65 72l12 14l13 -29l-11 -10q-27 -35 -26 -55q0 -27 43 -70l422 -420l420 420q43 43 43 72q0 20 -27 53q-4 6 -8 10l10 29l14 -14q25 -27 66 -72l71 -72q25 -20 72 -65l12 -15l-26 -10l-10 10q-35 27 -56 27 q-27 0 -69 -43l-449 -451v-446q0 -57 16.5 -76.5t61.5 -23.5h14l11 -27h-17q-16 0 -51 2t-47 2h-103q-10 0 -44.5 -2t-53.5 -2h-18l12 27h14q45 4 61.5 23.5t16.5 76.5v446l-450 451q-43 43 -70 43q-18 0 -53 -27l-10 -10zM741 1390l182 191h175l-267 -191h-90z" />
<glyph unicode="&#xfe;" horiz-adv-x="1146" d="M225 -4l11 27h14q45 4 61.5 23.5t16.5 76.5v950q0 57 -16.5 76.5t-61.5 24.5h-14l-11 26h17q18 0 53 -2t45 -2h102q12 0 47 2t52 2h18l-12 -26h-15q-45 -4 -61 -24t-16 -77v-16h166q156 0 263 -102.5t107 -254.5q0 -154 -108.5 -262t-261.5 -108h-166v-207 q0 -57 16 -76.5t61 -23.5h15l12 -27h-18q-16 0 -51 2t-48 2h-102q-10 0 -45 -2t-53 -2h-17zM455 446h157q109 0 181.5 74t72.5 180q0 104 -72.5 172t-181.5 68h-157v-494z" />
<glyph unicode="&#xff;" horiz-adv-x="1605" d="M121 1036l14 15q12 12 38 34.5t34 30.5l72 72q29 29 65 72l12 14l13 -29l-11 -10q-27 -35 -26 -55q0 -27 43 -70l422 -420l420 420q43 43 43 72q0 20 -27 53q-4 6 -8 10l10 29l14 -14q25 -27 66 -72l71 -72q25 -20 72 -65l12 -15l-26 -10l-10 10q-35 27 -56 27 q-27 0 -69 -43l-449 -451v-446q0 -57 16.5 -76.5t61.5 -23.5h14l11 -27h-17q-16 0 -51 2t-47 2h-103q-10 0 -44.5 -2t-53.5 -2h-18l12 27h14q45 4 61.5 23.5t16.5 76.5v446l-450 451q-43 43 -70 43q-18 0 -53 -27l-10 -10zM569 1481l90 90l91 -90l-91 -90zM868 1481l90 90 l91 -90l-91 -90z" />
<glyph unicode="&#x152;" horiz-adv-x="2293" d="M229 598q0 260 184.5 444.5t444.5 184.5q311 0 502 -248v217h512q59 0 77.5 16.5t22.5 61.5v14l29 10v-16q0 -16 -3 -51t-3 -47v-103q0 -10 3 -45t3 -53v-18l-29 12v14q-4 45 -22.5 61.5t-77.5 16.5h-385v-369h377q57 0 75.5 15.5t22.5 60.5v15l29 12v-19q0 -16 -2 -51 t-2 -47v-100q0 -10 2 -45t2 -54v-18l-29 10v17q-4 45 -22.5 60t-75.5 15h-377v-444h385q59 0 77.5 16.5t22.5 61.5v14l29 12v-18q0 -16 -3 -51t-3 -47v-103q0 -10 3 -46t3 -52v-16l-29 10v14q-4 45 -22.5 61.5t-77.5 16.5h-397l-115 -115v332q-190 -248 -502 -248 q-260 0 -444.5 184.5t-184.5 444.5zM358 543q20 -174 145.5 -299.5t299.5 -145.5v445h-445zM358 653h445v445q-174 -20 -299 -144.5t-146 -300.5zM913 98q174 20 299.5 145.5t145.5 299.5h-445v-445zM913 653h445q-20 176 -144 300t-301 145v-445z" />
<glyph unicode="&#x153;" horiz-adv-x="2293" d="M229 598q0 260 184.5 444.5t444.5 184.5q311 0 502 -248v217h512q59 0 77.5 16.5t22.5 61.5v14l29 10v-16q0 -16 -3 -51t-3 -47v-103q0 -10 3 -45t3 -53v-18l-29 12v14q-4 45 -22.5 61.5t-77.5 16.5h-385v-369h377q57 0 75.5 15.5t22.5 60.5v15l29 12v-19q0 -16 -2 -51 t-2 -47v-100q0 -10 2 -45t2 -54v-18l-29 10v17q-4 45 -22.5 60t-75.5 15h-377v-444h385q59 0 77.5 16.5t22.5 61.5v14l29 12v-18q0 -16 -3 -51t-3 -47v-103q0 -10 3 -46t3 -52v-16l-29 10v14q-4 45 -22.5 61.5t-77.5 16.5h-397l-115 -115v332q-190 -248 -502 -248 q-260 0 -444.5 184.5t-184.5 444.5zM358 543q20 -174 145.5 -299.5t299.5 -145.5v445h-445zM358 653h445v445q-174 -20 -299 -144.5t-146 -300.5zM913 98q174 20 299.5 145.5t145.5 299.5h-445v-445zM913 653h445q-20 176 -144 300t-301 145v-445z" />
<glyph unicode="&#x178;" horiz-adv-x="1605" d="M121 1036l14 15q12 12 38 34.5t34 30.5l72 72q29 29 65 72l12 14l13 -29l-11 -10q-27 -35 -26 -55q0 -27 43 -70l422 -420l420 420q43 43 43 72q0 20 -27 53q-4 6 -8 10l10 29l14 -14q25 -27 66 -72l71 -72q25 -20 72 -65l12 -15l-26 -10l-10 10q-35 27 -56 27 q-27 0 -69 -43l-449 -451v-446q0 -57 16.5 -76.5t61.5 -23.5h14l11 -27h-17q-16 0 -51 2t-47 2h-103q-10 0 -44.5 -2t-53.5 -2h-18l12 27h14q45 4 61.5 23.5t16.5 76.5v446l-450 451q-43 43 -70 43q-18 0 -53 -27l-10 -10zM587 1481l90 90l91 -90l-91 -90zM886 1481l90 90 l91 -90l-91 -90z" />
<glyph unicode="&#x2c6;" horiz-adv-x="978" d="M266 983l183 193h69l182 -193h-90l-127 92l-127 -92h-90z" />
<glyph unicode="&#x2dc;" horiz-adv-x="978" d="M279 993q0 61 44 105.5t105 44.5q70 0 117 -58q25 -31 59 -30q31 0 54.5 23.5t23.5 54.5h72q0 -61 -44 -105.5t-106 -44.5q-72 0 -119 59q-23 27 -57 27q-31 0 -54.5 -22.5t-23.5 -53.5h-71z" />
<glyph unicode="&#x2000;" horiz-adv-x="846" />
<glyph unicode="&#x2001;" horiz-adv-x="1692" />
<glyph unicode="&#x2002;" horiz-adv-x="846" />
<glyph unicode="&#x2003;" horiz-adv-x="1692" />
<glyph unicode="&#x2004;" horiz-adv-x="564" />
<glyph unicode="&#x2005;" horiz-adv-x="423" />
<glyph unicode="&#x2006;" horiz-adv-x="282" />
<glyph unicode="&#x2007;" horiz-adv-x="282" />
<glyph unicode="&#x2008;" horiz-adv-x="211" />
<glyph unicode="&#x2009;" horiz-adv-x="338" />
<glyph unicode="&#x200a;" horiz-adv-x="94" />
<glyph unicode="&#x2010;" horiz-adv-x="1124" d="M344 459v18q0 18 2 53t2 45v101q0 12 -2 47t-2 51v19l29 -11v-16q4 -45 22.5 -60.5t75.5 -15.5h180q59 0 78 15.5t23 60.5v16l28 11v-19q0 -16 -3 -51t-3 -47v-101q0 -10 3 -44.5t3 -53.5v-18l-28 12v14q-4 45 -22.5 60.5t-78.5 15.5h-180q-57 0 -75.5 -15.5t-22.5 -60.5 v-14z" />
<glyph unicode="&#x2011;" horiz-adv-x="1124" d="M344 459v18q0 18 2 53t2 45v101q0 12 -2 47t-2 51v19l29 -11v-16q4 -45 22.5 -60.5t75.5 -15.5h180q59 0 78 15.5t23 60.5v16l28 11v-19q0 -16 -3 -51t-3 -47v-101q0 -10 3 -44.5t3 -53.5v-18l-28 12v14q-4 45 -22.5 60.5t-78.5 15.5h-180q-57 0 -75.5 -15.5t-22.5 -60.5 v-14z" />
<glyph unicode="&#x2012;" horiz-adv-x="1124" d="M344 459v18q0 18 2 53t2 45v101q0 12 -2 47t-2 51v19l29 -11v-16q4 -45 22.5 -60.5t75.5 -15.5h180q59 0 78 15.5t23 60.5v16l28 11v-19q0 -16 -3 -51t-3 -47v-101q0 -10 3 -44.5t3 -53.5v-18l-28 12v14q-4 45 -22.5 60.5t-78.5 15.5h-180q-57 0 -75.5 -15.5t-22.5 -60.5 v-14z" />
<glyph unicode="&#x2013;" horiz-adv-x="819" d="M33 459v18q0 18 2 53t2 45v101q0 12 -2 47t-2 51v19l28 -11v-16q4 -45 22.5 -60.5t76.5 -15.5h499q57 0 76 15.5t23 60.5v16l28 11v-19q0 -16 -2 -51t-2 -47v-101q0 -10 2 -44.5t2 -53.5v-18l-28 12v14q-4 45 -22.5 60.5t-76.5 15.5h-499q-57 0 -75.5 -15.5t-23.5 -60.5 v-14z" />
<glyph unicode="&#x2014;" horiz-adv-x="1638" d="M33 459v18q0 18 2 53t2 45v101q0 12 -2 47t-2 51v19l28 -11v-16q4 -45 22.5 -60.5t76.5 -15.5h1319q57 0 75.5 15.5t22.5 60.5v16l29 11v-19q0 -16 -2 -51t-2 -47v-101q0 -10 2 -44.5t2 -53.5v-18l-29 12v14q-4 45 -22.5 60.5t-75.5 15.5h-1319q-57 0 -75.5 -15.5 t-23.5 -60.5v-14z" />
<glyph unicode="&#x2018;" horiz-adv-x="655" d="M176 1114l148 148l147 -148l-90 -90l111 -111l-58 -57z" />
<glyph unicode="&#x2019;" horiz-adv-x="655" d="M176 913l111 111l-90 90l147 148l148 -148l-259 -258z" />
<glyph unicode="&#x201a;" horiz-adv-x="655" d="M160 -109l110 111l-90 90l148 148l147 -148l-258 -258z" />
<glyph unicode="&#x201c;" horiz-adv-x="1093" d="M160 1114l147 148l148 -148l-90 -90l110 -111l-57 -57zM600 1114l148 148l147 -148l-90 -90l108 -111l-57 -57z" />
<glyph unicode="&#x201d;" horiz-adv-x="1093" d="M160 913l110 111l-90 90l148 148l147 -148l-258 -258zM600 913l109 111l-91 90l148 148l147 -148l-256 -258z" />
<glyph unicode="&#x201e;" horiz-adv-x="1093" d="M160 -109l110 111l-90 90l148 148l147 -148l-258 -258zM600 -109l109 111l-91 90l148 148l147 -148l-256 -258z" />
<glyph unicode="&#x2022;" horiz-adv-x="897" d="M213 598q0 96 69.5 166t166.5 70q96 0 165.5 -70t69.5 -166t-69.5 -166t-165.5 -70t-166 70t-70 166z" />
<glyph unicode="&#x2026;" horiz-adv-x="1966" d="M180 92l148 148l147 -148l-147 -147zM836 92l147 148l147 -148l-147 -147zM1491 92l147 148l148 -148l-148 -147z" />
<glyph unicode="&#x202f;" horiz-adv-x="338" />
<glyph unicode="&#x2039;" horiz-adv-x="1232" d="M229 356q0 23 4 74h103q12 0 47 2t51 2h19l-13 -28h-14q-70 -6 -70 -50q0 -106 77 -183t183 -77t182 77t76 183q0 100 -67 174q-82 88 -221 88q-68 0 -148 -22l357 473h-402q-57 0 -76.5 -16.5t-23.5 -61.5v-14l-27 -12v18q0 18 2 53t2 45v119q80 -4 123 -4h660 l-351 -463q129 -31 215.5 -136t86.5 -241q0 -160 -114 -273.5t-274 -113.5t-273.5 114t-113.5 273z" />
<glyph unicode="&#x203a;" horiz-adv-x="1236" d="M125 297l670 958v-831h102q57 0 75.5 16.5t22.5 61.5v14l29 12v-18q0 -16 -2 -51t-2 -47v-103q0 -10 2 -45t2 -53v-18l-29 12v14q-4 45 -22.5 61.5t-75.5 16.5h-102v-174q0 -57 16 -76.5t61 -23.5h15l10 -27h-16q-16 0 -51 2t-48 2h-102q-10 0 -45 -2t-53 -2h-19l12 27 h15q45 4 61.5 23.5t16.5 76.5v174h-543zM358 424h310v442z" />
<glyph unicode="&#x205f;" horiz-adv-x="423" />
<glyph unicode="&#x2122;" horiz-adv-x="2043" d="M164 741v31q0 10 2 29v24v56v26q-2 18 -2 29v29l24 -19v-14q2 -31 43 -31h228v229q0 41 -31 44h-16l-15 24h29h29q18 -2 24 -2h58q6 0 24 2h29h28l-16 -24h-16q-31 -2 -31 -44v-229h229q39 0 41 31v14l27 17v-27q0 -10 -2 -29.5t-2 -25.5v-56q0 -6 2 -24.5t2 -28.5v-29 l-27 17v14q-2 33 -41 33h-229v-229q0 -41 31 -43h16l16 -25h-28q-10 0 -29 2h-24h-58h-24q-18 -2 -29 -2h-29l15 25h16q31 2 31 43v229h-228q-41 0 -43 -31v-16zM1014 510l18 25h15q31 2 30 43v552q0 41 -30 44h-15l-18 24h30h29q18 -2 25 -2h270q-10 35 -29 37h-16l-16 24 h28q10 0 28.5 -2t25.5 -2h57q6 0 24.5 2t28.5 2h29l-17 -24h-16q-23 -2 -27 -37h269q6 0 24 2h29h31l-19 -24h-14q-31 -2 -31 -44v-552q0 -41 29 -43h16l19 -25h-31q-8 0 -29 2h-24h-56h-26q-18 -2 -29 -2h-29l19 25h12q31 2 31 43v518h-193v-518q0 -41 29 -43h16l17 -25 h-29q-10 0 -29 2h-24h-57h-25q-18 -2 -29 -2h-28l16 25h16q31 2 31 43v518h-194v-518q0 -41 28 -43h17l18 -25h-31q-8 0 -28 2h-25h-57h-25q-20 -2 -29 -2h-30z" />
<glyph unicode="&#x25fc;" horiz-adv-x="1269" d="M0 0v1270h1270v-1270h-1270z" />
</font>
</defs>
</svg>
